# MagicaVoxel @ Ephtracy

# group
o 

# material
mtllib chr_knight.mtl
usemtl palette

# normals
vn -1 0 0
vn 1 0 0
vn 0 0 1
vn 0 0 -1
vn 0 -1 0
vn 0 1 0

# texcoords
vt 0.0332031 0.5
vt 0.0410156 0.5
vt 0.0605469 0.5
vt 0.0644531 0.5
vt 0.0683594 0.5
vt 0.201172 0.5
vt 0.205078 0.5
vt 0.369141 0.5
vt 0.486328 0.5
vt 0.603516 0.5
vt 0.607422 0.5
vt 0.623047 0.5
vt 0.767578 0.5
vt 0.841797 0.5
vt 0.958984 0.5
vt 0.962891 0.5
vt 0.966797 0.5
vt 0.970703 0.5
vt 0.974609 0.5
vt 0.978516 0.5
vt 0.982422 0.5
vt 0.986328 0.5
vt 0.994141 0.5

# verts
v -1 0.7 0
v -1 0.7 -0.1
v -1 0.9 0
v -1 0.9 -0.1
v -1 1.1 0
v -1 1.1 -0.1
v -0.9 0.6 0
v -0.9 0.6 -0.1
v -0.9 0.7 0
v -0.9 0.7 -0.1
v -0.9 1.1 0
v -0.9 1.1 -0.1
v -0.9 1.2 0
v -0.9 1.2 -0.1
v -0.8 0.5 0
v -0.8 0.5 -0.1
v -0.8 0.6 0
v -0.8 0.6 -0.1
v -0.8 1.2 0
v -0.8 1.2 -0.1
v -0.8 1.3 0
v -0.8 1.3 -0.1
v -0.6 0 0
v -0.6 0 -0.1
v -0.6 0.8 0
v -0.6 0.8 -0.1
v -0.6 1 0
v -0.6 1 -0.1
v -0.6 1.1 0
v -0.6 1.1 -0.1
v -0.5 0.9 0.3
v -0.5 0.9 0.2
v -0.5 1 0.4
v -0.5 1 0.3
v -0.5 1.1 0.4
v -0.5 1.1 0.2
v -0.4 0.4 0
v -0.4 0.4 -0.1
v -0.4 0.5 0.1
v -0.4 0.5 0
v -0.4 0.5 -0.1
v -0.4 0.5 -0.2
v -0.4 0.6 0.1
v -0.4 0.6 0
v -0.4 0.6 -0.1
v -0.4 0.6 -0.2
v -0.4 0.7 0.4
v -0.4 0.7 0.3
v -0.4 0.7 0
v -0.4 0.7 -0.1
v -0.4 0.8 0.4
v -0.4 0.8 0.3
v -0.4 0.8 0.1
v -0.4 0.8 -0.2
v -0.4 0.9 0.4
v -0.4 0.9 0.3
v -0.4 0.9 0.2
v -0.4 0.9 0.1
v -0.4 0.9 0
v -0.4 0.9 -0.1
v -0.4 0.9 -0.2
v -0.4 0.9 -0.3
v -0.4 1 0.4
v -0.4 1 0.3
v -0.4 1 0.1
v -0.4 1 0
v -0.4 1 -0.1
v -0.4 1 -0.2
v -0.4 1.1 0.4
v -0.4 1.1 0.3
v -0.4 1.1 0.2
v -0.4 1.1 0.1
v -0.4 1.1 0
v -0.4 1.1 -0.1
v -0.4 1.1 -0.2
v -0.4 1.2 0.4
v -0.4 1.2 0.3
v -0.4 1.2 0.2
v -0.4 1.2 0.1
v -0.4 1.2 0
v -0.4 1.2 -0.1
v -0.4 1.2 -0.2
v -0.4 1.2 -0.3
v -0.4 1.3 0.1
v -0.4 1.3 -0.2
v -0.3 0.1 0
v -0.3 0.1 -0.1
v -0.3 0.1 -0.2
v -0.3 0.2 0.1
v -0.3 0.2 0
v -0.3 0.2 -0.1
v -0.3 0.2 -0.2
v -0.3 0.2 -0.3
v -0.3 0.3 0
v -0.3 0.3 -0.2
v -0.3 0.4 0.1
v -0.3 0.4 0
v -0.3 0.4 -0.1
v -0.3 0.5 0.1
v -0.3 0.5 0
v -0.3 0.5 -0.1
v -0.3 0.5 -0.2
v -0.3 0.6 0.4
v -0.3 0.6 0.3
v -0.3 0.6 0.1
v -0.3 0.6 0
v -0.3 0.6 -0.1
v -0.3 0.6 -0.2
v -0.3 0.6 -0.3
v -0.3 0.7 0.4
v -0.3 0.7 0.3
v -0.3 0.7 0.2
v -0.3 0.7 0.1
v -0.3 0.7 0
v -0.3 0.7 -0.1
v -0.3 0.7 -0.2
v -0.3 0.7 -0.3
v -0.3 0.8 0.1
v -0.3 0.8 0
v -0.3 0.8 -0.2
v -0.3 0.8 -0.3
v -0.3 0.9 0.2
v -0.3 0.9 0.1
v -0.3 0.9 -0.2
v -0.3 0.9 -0.3
v -0.3 0.9 -0.4
v -0.3 1.2 0.2
v -0.3 1.2 0.1
v -0.3 1.2 -0.2
v -0.3 1.2 -0.3
v -0.3 1.2 -0.4
v -0.3 1.3 0.2
v -0.3 1.3 0.1
v -0.3 1.3 -0.2
v -0.3 1.3 -0.3
v -0.2 0 0
v -0.2 0 -0.1
v -0.2 0.1 0
v -0.2 0.1 -0.1
v -0.2 0.2 0.2
v -0.2 0.2 0.1
v -0.2 0.3 0.2
v -0.2 0.3 0.1
v -0.2 0.3 -0.3
v -0.2 0.3 -0.4
v -0.2 0.4 0.1
v -0.2 0.5 0.2
v -0.2 0.5 0.1
v -0.2 0.6 0.2
v -0.2 0.6 0.1
v -0.2 0.6 -0.2
v -0.2 0.6 -0.3
v -0.2 0.6 -0.4
v -0.2 0.7 0.2
v -0.2 0.7 0.1
v -0.2 0.7 0
v -0.2 0.7 -0.2
v -0.2 0.7 -0.3
v -0.2 0.7 -0.4
v -0.2 0.8 0.1
v -0.2 0.8 0
v -0.2 0.8 -0.3
v -0.2 0.8 -0.4
v -0.2 0.8 -0.5
v -0.2 0.9 -0.3
v -0.2 0.9 -0.4
v -0.2 1.1 -0.4
v -0.2 1.1 -0.5
v -0.2 1.3 0.1
v -0.2 1.3 -0.2
v -0.2 1.4 0.1
v -0.2 1.4 -0.2
v -0.1 0.2 0.3
v -0.1 0.2 0.2
v -0.1 0.3 0.2
v -0.1 0.5 0.3
v -0.1 0.5 0.2
v -0.1 0.6 -0.3
v -0.1 0.6 -0.4
v -0.1 0.7 -0.3
v -0.1 0.7 -0.4
v -0.1 0.9 0.2
v -0.1 0.9 0.1
v -0.1 1 0.2
v -0.1 1 0.1
v 0.1 0 0
v 0.1 0 -0.1
v 0.1 0.2 0.1
v 0.1 0.2 0
v 0.1 0.2 -0.1
v 0.1 0.2 -0.2
v 0.1 0.2 -0.3
v 0.1 0.3 0.1
v 0.1 0.3 0
v 0.1 0.3 -0.1
v 0.1 0.3 -0.2
v 0.1 0.3 -0.3
v 0.1 0.6 0.2
v 0.1 0.6 0.1
v 0.1 0.7 0.2
v 0.1 0.7 0.1
v 0.1 0.7 -0.3
v 0.1 0.7 -0.4
v 0.1 0.8 -0.3
v 0.1 0.8 -0.4
v 0.1 0.8 -0.5
v 0.1 0.9 -0.3
v 0.1 0.9 -0.5
v 0.2 0.1 -0.1
v 0.2 0.1 -0.2
v 0.2 0.2 -0.1
v 0.2 0.2 -0.2
v 0.2 0.3 -0.1
v 0.2 0.3 -0.2
v 0.2 0.6 -0.3
v 0.2 0.6 -0.4
v 0.2 0.7 0.2
v 0.2 0.7 0.1
v 0.2 0.7 -0.3
v 0.2 0.7 -0.4
v 0.2 0.8 0.4
v 0.2 0.8 0.3
v 0.2 0.8 0.1
v 0.2 0.9 0.4
v 0.2 0.9 0.3
v 0.2 0.9 0.1
v 0.2 1 0.2
v 0.2 1 0.1
v 0.3 0.3 -0.3
v 0.3 0.3 -0.4
v 0.3 0.4 -0.3
v 0.3 0.4 -0.4
v 0.3 0.5 0
v 0.3 0.5 -0.1
v 0.3 0.5 -0.3
v 0.3 0.5 -0.4
v 0.3 0.6 0
v 0.3 0.6 -0.1
v 0.3 0.6 -0.3
v 0.3 0.6 -0.4
v 0.3 0.9 0.3
v 0.3 0.9 0.2
v 0.3 1 0.3
v 0.3 1 0.2
v 0.3 1.1 0.4
v 0.3 1.1 0.3
v 0.3 1.2 0.4
v 0.3 1.2 0.3
v 0.4 0.4 0
v 0.4 0.4 -0.1
v 0.4 0.4 -0.3
v 0.4 0.4 -0.4
v 0.4 0.5 0
v 0.4 0.5 -0.1
v 0.4 0.5 -0.3
v 0.4 0.5 -0.4
v 0.4 0.6 -0.2
v 0.4 0.6 -0.3
v 0.4 0.7 -0.2
v 0.4 0.7 -0.3
v 0.5 0.3 -0.3
v 0.5 0.3 -0.4
v 0.5 0.4 -0.3
v 0.5 0.4 -0.4
v 0.6 0.4 -0.2
v 0.6 0.4 -0.3
v 0.6 0.5 -0.2
v 0.6 0.5 -0.3
v 0.6 0.6 0
v 0.6 0.6 -0.1
v 0.6 0.7 0
v 0.6 0.7 -0.1
v 0.7 0.5 -0.1
v 0.7 0.5 -0.2
v 0.7 0.6 -0.1
v 0.7 0.6 -0.2
v -0.8 0.6 0
v -0.8 0.6 -0.1
v -0.8 0.7 0
v -0.8 0.7 -0.1
v -0.8 1.1 0
v -0.8 1.1 -0.1
v -0.8 1.2 0
v -0.8 1.2 -0.1
v -0.7 0.5 0
v -0.7 0.5 -0.1
v -0.7 0.6 0
v -0.7 0.6 -0.1
v -0.7 0.7 0
v -0.7 0.7 -0.1
v -0.7 0.8 0
v -0.7 0.8 -0.1
v -0.7 1 0
v -0.7 1 -0.1
v -0.7 1.1 0
v -0.7 1.1 -0.1
v -0.7 1.2 0
v -0.7 1.2 -0.1
v -0.7 1.3 0
v -0.7 1.3 -0.1
v -0.5 0 0
v -0.5 0 -0.1
v -0.5 0.3 0
v -0.5 0.3 -0.1
v -0.5 0.4 0
v -0.5 0.4 -0.1
v -0.5 0.8 0
v -0.5 0.8 -0.1
v -0.5 0.9 0
v -0.5 0.9 -0.1
v -0.5 1 0
v -0.5 1 -0.1
v -0.5 1.1 0
v -0.5 1.1 -0.1
v -0.4 0.3 0
v -0.4 0.3 -0.1
v -0.4 0.4 0
v -0.4 0.4 -0.1
v -0.3 0.9 0.3
v -0.3 0.9 0.2
v -0.3 1 0.3
v -0.3 1 0.2
v -0.3 1.1 0.4
v -0.3 1.1 0.3
v -0.3 1.2 0.4
v -0.3 1.2 0.3
v -0.2 0.1 -0.1
v -0.2 0.1 -0.2
v -0.2 0.2 -0.1
v -0.2 0.2 -0.2
v -0.2 0.3 -0.1
v -0.2 0.3 -0.2
v -0.2 0.7 0.2
v -0.2 0.7 0.1
v -0.2 0.8 0.4
v -0.2 0.8 0.3
v -0.2 0.8 0.1
v -0.2 0.9 0.4
v -0.2 0.9 0.3
v -0.2 0.9 0.1
v -0.2 1 0.2
v -0.2 1 0.1
v -0.1 0 0
v -0.1 0 -0.1
v -0.1 0.2 0.1
v -0.1 0.2 0
v -0.1 0.2 -0.1
v -0.1 0.2 -0.2
v -0.1 0.2 -0.3
v -0.1 0.3 0.1
v -0.1 0.3 0
v -0.1 0.3 -0.1
v -0.1 0.3 -0.2
v -0.1 0.3 -0.3
v -0.1 0.6 0.2
v -0.1 0.6 0.1
v -0.1 0.7 0.2
v -0.1 0.7 0.1
v -0.1 0.7 -0.3
v -0.1 0.7 -0.4
v -0.1 0.8 -0.3
v -0.1 0.8 -0.4
v -0.1 0.8 -0.5
v -0.1 0.9 -0.3
v -0.1 0.9 -0.5
v 0 0.9 0.2
v 0 0.9 0.1
v 0 1 0.2
v 0 1 0.1
v 0.1 0.2 0.3
v 0.1 0.2 0.2
v 0.1 0.3 0.2
v 0.1 0.4 0.3
v 0.1 0.4 0.2
v 0.1 0.5 0.3
v 0.1 0.5 0.2
v 0.1 0.6 -0.3
v 0.1 0.6 -0.4
v 0.1 0.7 -0.3
v 0.1 0.7 -0.4
v 0.2 0 0
v 0.2 0 -0.1
v 0.2 0.1 0
v 0.2 0.1 -0.1
v 0.2 0.2 0.2
v 0.2 0.2 0.1
v 0.2 0.3 0.2
v 0.2 0.3 0.1
v 0.2 0.3 -0.3
v 0.2 0.3 -0.4
v 0.2 0.4 0.2
v 0.2 0.4 0.1
v 0.2 0.4 -0.3
v 0.2 0.4 -0.4
v 0.2 0.5 0.2
v 0.2 0.5 0.1
v 0.2 0.5 0
v 0.2 0.5 -0.1
v 0.2 0.5 -0.3
v 0.2 0.5 -0.4
v 0.2 0.6 0.2
v 0.2 0.6 0.1
v 0.2 0.6 0
v 0.2 0.6 -0.1
v 0.2 0.6 -0.3
v 0.2 0.6 -0.4
v 0.2 0.7 0.2
v 0.2 0.7 0.1
v 0.2 0.7 0
v 0.2 0.7 -0.3
v 0.2 0.7 -0.4
v 0.2 0.8 0.1
v 0.2 0.8 0
v 0.2 0.8 -0.3
v 0.2 0.8 -0.4
v 0.2 0.8 -0.5
v 0.2 0.9 -0.3
v 0.2 0.9 -0.4
v 0.2 1.1 -0.4
v 0.2 1.1 -0.5
v 0.2 1.3 0.1
v 0.2 1.3 -0.1
v 0.2 1.3 -0.2
v 0.2 1.4 0.1
v 0.2 1.4 -0.2
v 0.3 0.1 0
v 0.3 0.1 -0.1
v 0.3 0.1 -0.2
v 0.3 0.2 0.1
v 0.3 0.2 0
v 0.3 0.2 -0.1
v 0.3 0.2 -0.2
v 0.3 0.2 -0.3
v 0.3 0.3 0
v 0.3 0.3 -0.1
v 0.3 0.3 -0.2
v 0.3 0.3 -0.3
v 0.3 0.4 0.1
v 0.3 0.4 0
v 0.3 0.4 -0.1
v 0.3 0.4 -0.3
v 0.3 0.4 -0.4
v 0.3 0.5 0.1
v 0.3 0.5 -0.2
v 0.3 0.5 -0.3
v 0.3 0.5 -0.4
v 0.3 0.6 0.4
v 0.3 0.6 0.3
v 0.3 0.6 0.1
v 0.3 0.6 0
v 0.3 0.6 -0.1
v 0.3 0.6 -0.2
v 0.3 0.6 -0.3
v 0.3 0.6 -0.4
v 0.3 0.7 0.4
v 0.3 0.7 0.3
v 0.3 0.7 0.2
v 0.3 0.7 0.1
v 0.3 0.7 0
v 0.3 0.7 -0.1
v 0.3 0.7 -0.2
v 0.3 0.7 -0.3
v 0.3 0.7 -0.4
v 0.3 0.8 0.1
v 0.3 0.8 0
v 0.3 0.8 -0.1
v 0.3 0.8 -0.2
v 0.3 0.8 -0.3
v 0.3 0.9 0.2
v 0.3 0.9 0.1
v 0.3 0.9 -0.2
v 0.3 0.9 -0.3
v 0.3 0.9 -0.4
v 0.3 1.2 0.2
v 0.3 1.2 0.1
v 0.3 1.2 -0.2
v 0.3 1.2 -0.3
v 0.3 1.2 -0.4
v 0.3 1.3 0.2
v 0.3 1.3 0.1
v 0.3 1.3 -0.2
v 0.3 1.3 -0.3
v 0.4 0.3 0
v 0.4 0.3 -0.1
v 0.4 0.3 -0.3
v 0.4 0.3 -0.4
v 0.4 0.4 0
v 0.4 0.4 -0.1
v 0.4 0.4 -0.3
v 0.4 0.4 -0.4
v 0.4 0.5 0.1
v 0.4 0.5 0
v 0.4 0.5 -0.1
v 0.4 0.5 -0.2
v 0.4 0.5 -0.3
v 0.4 0.5 -0.4
v 0.4 0.6 0.1
v 0.4 0.6 0
v 0.4 0.6 -0.1
v 0.4 0.6 -0.2
v 0.4 0.6 -0.3
v 0.4 0.6 -0.4
v 0.4 0.7 0.4
v 0.4 0.7 0.3
v 0.4 0.7 0
v 0.4 0.7 -0.1
v 0.4 0.7 -0.2
v 0.4 0.8 0.4
v 0.4 0.8 0.3
v 0.4 0.8 0.1
v 0.4 0.8 -0.1
v 0.4 0.8 -0.2
v 0.4 0.9 0.4
v 0.4 0.9 0.3
v 0.4 0.9 0.2
v 0.4 0.9 0.1
v 0.4 0.9 0
v 0.4 0.9 -0.1
v 0.4 0.9 -0.2
v 0.4 0.9 -0.3
v 0.4 1 0.4
v 0.4 1 0.3
v 0.4 1 0.1
v 0.4 1 0
v 0.4 1 -0.1
v 0.4 1 -0.2
v 0.4 1.1 0.4
v 0.4 1.1 0.3
v 0.4 1.1 0.2
v 0.4 1.1 0.1
v 0.4 1.1 0
v 0.4 1.1 -0.1
v 0.4 1.1 -0.2
v 0.4 1.2 0.4
v 0.4 1.2 0.3
v 0.4 1.2 0.2
v 0.4 1.2 0.1
v 0.4 1.2 0
v 0.4 1.2 -0.1
v 0.4 1.2 -0.2
v 0.4 1.2 -0.3
v 0.4 1.3 0.1
v 0.4 1.3 -0.2
v 0.5 0.4 0
v 0.5 0.4 -0.1
v 0.5 0.4 -0.3
v 0.5 0.4 -0.4
v 0.5 0.5 0
v 0.5 0.5 -0.1
v 0.5 0.5 -0.3
v 0.5 0.5 -0.4
v 0.5 0.6 -0.2
v 0.5 0.6 -0.3
v 0.5 0.7 -0.2
v 0.5 0.7 -0.3
v 0.5 0.9 0.3
v 0.5 0.9 0.2
v 0.5 1 0.4
v 0.5 1 0.3
v 0.5 1.1 0.4
v 0.5 1.1 0.2
v 0.6 0.3 -0.3
v 0.6 0.3 -0.4
v 0.6 0.4 -0.3
v 0.6 0.4 -0.4
v 0.7 0.4 -0.2
v 0.7 0.4 -0.3
v 0.7 0.5 -0.2
v 0.7 0.5 -0.3
v 0.7 0.6 0
v 0.7 0.6 -0.1
v 0.7 0.7 0
v 0.7 0.7 -0.1
v 0.8 0.5 -0.1
v 0.8 0.5 -0.2
v 0.8 0.6 -0.1
v 0.8 0.6 -0.2
v -0.5 1 0.4
v -0.5 1.1 0.4
v -0.4 0.7 0.4
v -0.4 0.8 0.4
v -0.4 0.9 0.4
v -0.4 1 0.4
v -0.4 1.1 0.4
v -0.4 1.2 0.4
v -0.3 0.6 0.4
v -0.3 0.7 0.4
v -0.3 0.8 0.4
v -0.3 0.9 0.4
v -0.3 1 0.4
v -0.3 1.1 0.4
v -0.3 1.2 0.4
v -0.2 0.6 0.4
v -0.2 0.7 0.4
v -0.2 0.8 0.4
v -0.2 0.9 0.4
v -0.2 1 0.4
v -0.2 1.1 0.4
v -0.1 0.9 0.4
v -0.1 1 0.4
v 0.1 0.9 0.4
v 0.1 1 0.4
v 0.2 0.6 0.4
v 0.2 0.7 0.4
v 0.2 0.8 0.4
v 0.2 0.9 0.4
v 0.2 1 0.4
v 0.2 1.1 0.4
v 0.3 0.6 0.4
v 0.3 0.7 0.4
v 0.3 0.8 0.4
v 0.3 0.9 0.4
v 0.3 1 0.4
v 0.3 1.1 0.4
v 0.3 1.2 0.4
v 0.4 0.7 0.4
v 0.4 0.8 0.4
v 0.4 0.9 0.4
v 0.4 1 0.4
v 0.4 1.1 0.4
v 0.4 1.2 0.4
v 0.5 1 0.4
v 0.5 1.1 0.4
v -0.5 0.9 0.3
v -0.5 1 0.3
v -0.4 0.9 0.3
v -0.4 1 0.3
v -0.3 1.1 0.3
v -0.3 1.2 0.3
v -0.2 1.1 0.3
v -0.1 0.2 0.3
v -0.1 0.5 0.3
v 0 0.2 0.3
v 0 0.4 0.3
v 0 0.5 0.3
v 0 1.1 0.3
v 0 1.2 0.3
v 0.1 0.2 0.3
v 0.1 0.4 0.3
v 0.1 0.5 0.3
v 0.2 1.1 0.3
v 0.2 1.2 0.3
v 0.3 1.1 0.3
v 0.3 1.2 0.3
v 0.4 0.9 0.3
v 0.4 1 0.3
v 0.5 0.9 0.3
v 0.5 1 0.3
v -0.3 0.7 0.2
v -0.3 0.9 0.2
v -0.3 1 0.2
v -0.3 1.2 0.2
v -0.3 1.3 0.2
v -0.2 0.2 0.2
v -0.2 0.3 0.2
v -0.2 0.5 0.2
v -0.2 0.6 0.2
v -0.2 0.7 0.2
v -0.2 1 0.2
v -0.2 1.2 0.2
v -0.2 1.3 0.2
v -0.1 0.2 0.2
v -0.1 0.3 0.2
v -0.1 0.5 0.2
v -0.1 0.6 0.2
v -0.1 0.7 0.2
v -0.1 0.9 0.2
v -0.1 1 0.2
v 0 0.5 0.2
v 0 0.6 0.2
v 0 0.9 0.2
v 0 1 0.2
v 0 1.2 0.2
v 0.1 0.2 0.2
v 0.1 0.3 0.2
v 0.1 0.4 0.2
v 0.1 0.5 0.2
v 0.1 0.6 0.2
v 0.1 0.7 0.2
v 0.2 0.2 0.2
v 0.2 0.3 0.2
v 0.2 0.4 0.2
v 0.2 0.5 0.2
v 0.2 0.6 0.2
v 0.2 0.7 0.2
v 0.2 1 0.2
v 0.2 1.2 0.2
v 0.3 0.7 0.2
v 0.3 0.9 0.2
v 0.3 1 0.2
v 0.3 1.2 0.2
v 0.3 1.3 0.2
v -0.4 0.5 0.1
v -0.4 0.6 0.1
v -0.4 0.8 0.1
v -0.4 0.9 0.1
v -0.4 1.2 0.1
v -0.4 1.3 0.1
v -0.3 0.2 0.1
v -0.3 0.4 0.1
v -0.3 0.5 0.1
v -0.3 0.6 0.1
v -0.3 0.7 0.1
v -0.3 0.8 0.1
v -0.3 0.9 0.1
v -0.3 1.2 0.1
v -0.3 1.3 0.1
v -0.2 0.2 0.1
v -0.2 0.3 0.1
v -0.2 0.4 0.1
v -0.2 0.5 0.1
v -0.2 0.6 0.1
v -0.2 0.7 0.1
v -0.2 0.8 0.1
v -0.2 0.9 0.1
v -0.2 1 0.1
v -0.2 1.3 0.1
v -0.2 1.4 0.1
v -0.1 0.6 0.1
v -0.1 0.7 0.1
v -0.1 0.8 0.1
v -0.1 0.9 0.1
v -0.1 1 0.1
v -0.1 1.3 0.1
v -0.1 1.4 0.1
v 0 0.6 0.1
v 0 0.7 0.1
v 0 0.8 0.1
v 0 0.9 0.1
v 0 1 0.1
v 0.1 0.6 0.1
v 0.1 0.7 0.1
v 0.1 0.8 0.1
v 0.1 0.9 0.1
v 0.2 0.2 0.1
v 0.2 0.3 0.1
v 0.2 0.4 0.1
v 0.2 0.5 0.1
v 0.2 0.6 0.1
v 0.2 0.7 0.1
v 0.2 0.8 0.1
v 0.2 0.9 0.1
v 0.2 1 0.1
v 0.2 1.3 0.1
v 0.2 1.4 0.1
v 0.3 0.2 0.1
v 0.3 0.4 0.1
v 0.3 0.5 0.1
v 0.3 0.6 0.1
v 0.3 0.7 0.1
v 0.3 0.8 0.1
v 0.3 0.9 0.1
v 0.3 1.2 0.1
v 0.3 1.3 0.1
v 0.4 0.5 0.1
v 0.4 0.6 0.1
v 0.4 0.8 0.1
v 0.4 0.9 0.1
v 0.4 1.2 0.1
v 0.4 1.3 0.1
v -1 0.7 0
v -1 0.9 0
v -1 1.1 0
v -0.9 0.6 0
v -0.9 0.7 0
v -0.9 0.9 0
v -0.9 1.1 0
v -0.9 1.2 0
v -0.8 0.5 0
v -0.8 0.6 0
v -0.8 0.7 0
v -0.8 0.9 0
v -0.8 1.1 0
v -0.8 1.2 0
v -0.8 1.3 0
v -0.7 0.5 0
v -0.7 0.6 0
v -0.7 0.7 0
v -0.7 0.8 0
v -0.7 0.9 0
v -0.7 1 0
v -0.7 1.1 0
v -0.7 1.2 0
v -0.7 1.3 0
v -0.6 0 0
v -0.6 0.8 0
v -0.6 0.9 0
v -0.6 1 0
v -0.6 1.1 0
v -0.5 0 0
v -0.5 0.3 0
v -0.5 0.4 0
v -0.5 0.8 0
v -0.5 0.9 0
v -0.5 1 0
v -0.5 1.1 0
v -0.4 0.3 0
v -0.4 0.4 0
v -0.4 0.5 0
v -0.4 0.6 0
v -0.4 0.7 0
v -0.3 0.1 0
v -0.3 0.2 0
v -0.3 0.4 0
v -0.3 0.5 0
v -0.3 0.6 0
v -0.3 0.7 0
v -0.3 0.8 0
v -0.2 0 0
v -0.2 0.1 0
v -0.2 0.2 0
v -0.2 0.7 0
v -0.2 0.8 0
v -0.1 0 0
v -0.1 0.2 0
v 0.1 0 0
v 0.1 0.2 0
v 0.2 0 0
v 0.2 0.1 0
v 0.2 0.2 0
v 0.2 0.7 0
v 0.2 0.8 0
v 0.3 0.1 0
v 0.3 0.2 0
v 0.3 0.3 0
v 0.3 0.4 0
v 0.3 0.6 0
v 0.3 0.7 0
v 0.3 0.8 0
v 0.4 0.3 0
v 0.4 0.4 0
v 0.4 0.5 0
v 0.4 0.6 0
v 0.4 0.7 0
v 0.5 0.4 0
v 0.5 0.5 0
v 0.6 0.6 0
v 0.6 0.7 0
v 0.7 0.6 0
v 0.7 0.7 0
v 0.2 0.5 -0.1
v 0.2 0.6 -0.1
v 0.3 0.5 -0.1
v 0.3 0.6 -0.1
v 0.3 0.7 -0.1
v 0.3 0.8 -0.1
v 0.4 0.7 -0.1
v 0.4 0.8 -0.1
v 0.7 0.5 -0.1
v 0.7 0.6 -0.1
v 0.8 0.5 -0.1
v 0.8 0.6 -0.1
v -0.2 0.2 -0.2
v -0.2 0.3 -0.2
v -0.1 0.2 -0.2
v -0.1 0.3 -0.2
v 0.1 0.2 -0.2
v 0.1 0.3 -0.2
v 0.2 0.2 -0.2
v 0.2 0.3 -0.2
v 0.4 0.6 -0.2
v 0.4 0.7 -0.2
v 0.5 0.6 -0.2
v 0.5 0.7 -0.2
v 0.6 0.4 -0.2
v 0.6 0.5 -0.2
v 0.7 0.4 -0.2
v 0.7 0.5 -0.2
v 0.3 0.3 -0.3
v 0.3 0.4 -0.3
v 0.3 0.5 -0.3
v 0.3 0.6 -0.3
v 0.4 0.3 -0.3
v 0.4 0.4 -0.3
v 0.4 0.5 -0.3
v 0.4 0.6 -0.3
v 0.5 0.3 -0.3
v 0.5 0.4 -0.3
v 0.5 0.5 -0.3
v 0.6 0.3 -0.3
v 0.6 0.4 -0.3
v -0.4 0.7 0.3
v -0.4 0.8 0.3
v -0.4 0.9 0.3
v -0.3 0.6 0.3
v -0.3 0.7 0.3
v -0.3 0.8 0.3
v -0.3 0.9 0.3
v -0.3 1 0.3
v -0.2 0.6 0.3
v -0.2 0.7 0.3
v -0.2 0.8 0.3
v -0.2 0.9 0.3
v -0.2 1 0.3
v -0.1 0.9 0.3
v -0.1 1 0.3
v 0 1 0.3
v 0.1 0.9 0.3
v 0.1 1 0.3
v 0.2 0.6 0.3
v 0.2 0.7 0.3
v 0.2 0.8 0.3
v 0.2 0.9 0.3
v 0.2 1 0.3
v 0.3 0.6 0.3
v 0.3 0.7 0.3
v 0.3 0.8 0.3
v 0.3 0.9 0.3
v 0.3 1 0.3
v 0.4 0.7 0.3
v 0.4 0.8 0.3
v 0.4 0.9 0.3
v -0.5 0.9 0.2
v -0.5 1.1 0.2
v -0.4 0.9 0.2
v -0.4 1.1 0.2
v 0.4 0.9 0.2
v 0.4 1.1 0.2
v 0.5 0.9 0.2
v 0.5 1.1 0.2
v -0.3 0.7 0.1
v -0.3 0.8 0.1
v -0.2 0.7 0.1
v -0.2 0.8 0.1
v -0.1 0.2 0.1
v -0.1 0.3 0.1
v 0 0.3 0.1
v 0.1 0.2 0.1
v 0.1 0.3 0.1
v 0.2 0.7 0.1
v 0.2 0.8 0.1
v 0.3 0.7 0.1
v 0.3 0.8 0.1
v 0.2 0.5 0
v 0.2 0.6 0
v 0.3 0.5 0
v 0.3 0.6 0
v -1 0.7 -0.1
v -1 0.9 -0.1
v -1 1.1 -0.1
v -0.9 0.6 -0.1
v -0.9 0.7 -0.1
v -0.9 0.9 -0.1
v -0.9 1.1 -0.1
v -0.9 1.2 -0.1
v -0.8 0.5 -0.1
v -0.8 0.6 -0.1
v -0.8 0.7 -0.1
v -0.8 0.9 -0.1
v -0.8 1.1 -0.1
v -0.8 1.2 -0.1
v -0.8 1.3 -0.1
v -0.7 0.5 -0.1
v -0.7 0.6 -0.1
v -0.7 0.7 -0.1
v -0.7 0.8 -0.1
v -0.7 0.9 -0.1
v -0.7 1 -0.1
v -0.7 1.1 -0.1
v -0.7 1.2 -0.1
v -0.7 1.3 -0.1
v -0.6 0 -0.1
v -0.6 0.8 -0.1
v -0.6 0.9 -0.1
v -0.6 1 -0.1
v -0.6 1.1 -0.1
v -0.5 0 -0.1
v -0.5 0.3 -0.1
v -0.5 0.4 -0.1
v -0.5 0.8 -0.1
v -0.5 0.9 -0.1
v -0.5 1 -0.1
v -0.5 1.1 -0.1
v -0.4 0.3 -0.1
v -0.4 0.4 -0.1
v -0.4 0.5 -0.1
v -0.4 0.6 -0.1
v -0.4 0.7 -0.1
v -0.3 0.4 -0.1
v -0.3 0.5 -0.1
v -0.3 0.6 -0.1
v -0.3 0.7 -0.1
v -0.2 0 -0.1
v -0.2 0.1 -0.1
v -0.2 0.2 -0.1
v -0.2 0.3 -0.1
v -0.1 0 -0.1
v -0.1 0.2 -0.1
v -0.1 0.3 -0.1
v 0.1 0 -0.1
v 0.1 0.2 -0.1
v 0.1 0.3 -0.1
v 0.2 0 -0.1
v 0.2 0.1 -0.1
v 0.2 0.2 -0.1
v 0.2 0.3 -0.1
v 0.3 0.3 -0.1
v 0.3 0.4 -0.1
v 0.3 0.6 -0.1
v 0.3 0.7 -0.1
v 0.4 0.3 -0.1
v 0.4 0.4 -0.1
v 0.4 0.5 -0.1
v 0.4 0.6 -0.1
v 0.4 0.7 -0.1
v 0.5 0.4 -0.1
v 0.5 0.5 -0.1
v 0.6 0.6 -0.1
v 0.6 0.7 -0.1
v 0.7 0.6 -0.1
v 0.7 0.7 -0.1
v -0.4 0.5 -0.2
v -0.4 0.6 -0.2
v -0.4 0.8 -0.2
v -0.4 0.9 -0.2
v -0.4 1.2 -0.2
v -0.4 1.3 -0.2
v -0.3 0.1 -0.2
v -0.3 0.2 -0.2
v -0.3 0.5 -0.2
v -0.3 0.6 -0.2
v -0.3 0.7 -0.2
v -0.3 0.8 -0.2
v -0.3 0.9 -0.2
v -0.3 1.2 -0.2
v -0.3 1.3 -0.2
v -0.2 0.1 -0.2
v -0.2 0.2 -0.2
v -0.2 0.6 -0.2
v -0.2 0.7 -0.2
v -0.2 1.3 -0.2
v -0.2 1.4 -0.2
v -0.1 1.3 -0.2
v -0.1 1.4 -0.2
v 0.2 0.1 -0.2
v 0.2 0.2 -0.2
v 0.2 1.3 -0.2
v 0.2 1.4 -0.2
v 0.3 0.1 -0.2
v 0.3 0.2 -0.2
v 0.3 0.5 -0.2
v 0.3 0.6 -0.2
v 0.3 0.7 -0.2
v 0.3 0.8 -0.2
v 0.3 0.9 -0.2
v 0.3 1.2 -0.2
v 0.3 1.3 -0.2
v 0.4 0.5 -0.2
v 0.4 0.6 -0.2
v 0.4 0.7 -0.2
v 0.4 0.8 -0.2
v 0.4 0.9 -0.2
v 0.4 1.2 -0.2
v 0.4 1.3 -0.2
v 0.7 0.5 -0.2
v 0.7 0.6 -0.2
v 0.8 0.5 -0.2
v 0.8 0.6 -0.2
v -0.4 0.9 -0.3
v -0.4 1.2 -0.3
v -0.3 0.2 -0.3
v -0.3 0.6 -0.3
v -0.3 0.7 -0.3
v -0.3 0.8 -0.3
v -0.3 0.9 -0.3
v -0.3 1.2 -0.3
v -0.3 1.3 -0.3
v -0.2 0.3 -0.3
v -0.2 0.6 -0.3
v -0.2 0.7 -0.3
v -0.2 0.8 -0.3
v -0.2 0.9 -0.3
v -0.1 0.2 -0.3
v -0.1 0.3 -0.3
v -0.1 0.6 -0.3
v -0.1 0.7 -0.3
v -0.1 0.8 -0.3
v -0.1 0.9 -0.3
v 0.1 0.2 -0.3
v 0.1 0.3 -0.3
v 0.1 0.6 -0.3
v 0.1 0.7 -0.3
v 0.1 0.8 -0.3
v 0.1 0.9 -0.3
v 0.2 0.3 -0.3
v 0.2 0.4 -0.3
v 0.2 0.5 -0.3
v 0.2 0.6 -0.3
v 0.2 0.7 -0.3
v 0.2 0.8 -0.3
v 0.2 0.9 -0.3
v 0.3 0.2 -0.3
v 0.3 0.3 -0.3
v 0.3 0.4 -0.3
v 0.3 0.5 -0.3
v 0.3 0.6 -0.3
v 0.3 0.7 -0.3
v 0.3 0.8 -0.3
v 0.3 0.9 -0.3
v 0.3 1.2 -0.3
v 0.3 1.3 -0.3
v 0.4 0.6 -0.3
v 0.4 0.7 -0.3
v 0.4 0.9 -0.3
v 0.4 1.2 -0.3
v 0.5 0.6 -0.3
v 0.5 0.7 -0.3
v 0.6 0.4 -0.3
v 0.6 0.5 -0.3
v 0.7 0.4 -0.3
v 0.7 0.5 -0.3
v -0.3 0.9 -0.4
v -0.3 1.2 -0.4
v -0.2 0.3 -0.4
v -0.2 0.6 -0.4
v -0.2 0.7 -0.4
v -0.2 0.8 -0.4
v -0.2 0.9 -0.4
v -0.2 1.1 -0.4
v -0.1 0.4 -0.4
v -0.1 0.5 -0.4
v -0.1 0.6 -0.4
v -0.1 0.7 -0.4
v -0.1 0.8 -0.4
v 0 0.3 -0.4
v 0 0.4 -0.4
v 0 0.5 -0.4
v 0 0.6 -0.4
v 0.1 0.4 -0.4
v 0.1 0.5 -0.4
v 0.1 0.6 -0.4
v 0.1 0.7 -0.4
v 0.1 0.8 -0.4
v 0.2 0.3 -0.4
v 0.2 0.4 -0.4
v 0.2 0.5 -0.4
v 0.2 0.6 -0.4
v 0.2 0.7 -0.4
v 0.2 0.8 -0.4
v 0.2 0.9 -0.4
v 0.2 1.1 -0.4
v 0.3 0.3 -0.4
v 0.3 0.4 -0.4
v 0.3 0.5 -0.4
v 0.3 0.6 -0.4
v 0.3 0.7 -0.4
v 0.3 0.9 -0.4
v 0.3 1.2 -0.4
v 0.4 0.3 -0.4
v 0.4 0.4 -0.4
v 0.4 0.5 -0.4
v 0.4 0.6 -0.4
v 0.5 0.3 -0.4
v 0.5 0.4 -0.4
v 0.5 0.5 -0.4
v 0.6 0.3 -0.4
v 0.6 0.4 -0.4
v -0.2 0.8 -0.5
v -0.2 1.1 -0.5
v -0.1 0.8 -0.5
v -0.1 0.9 -0.5
v 0.1 0.8 -0.5
v 0.1 0.9 -0.5
v 0.2 0.8 -0.5
v 0.2 1.1 -0.5
v -0.6 0 0
v -0.5 0 0
v -0.2 0 0
v -0.1 0 0
v 0.1 0 0
v 0.2 0 0
v -0.6 0 -0.1
v -0.5 0 -0.1
v -0.2 0 -0.1
v -0.1 0 -0.1
v 0.1 0 -0.1
v 0.2 0 -0.1
v -0.3 0.1 0
v -0.2 0.1 0
v 0.2 0.1 0
v 0.3 0.1 0
v -0.3 0.1 -0.1
v -0.2 0.1 -0.1
v 0.2 0.1 -0.1
v 0.3 0.1 -0.1
v -0.3 0.1 -0.2
v -0.2 0.1 -0.2
v 0.2 0.1 -0.2
v 0.3 0.1 -0.2
v -0.1 0.2 0.3
v 0 0.2 0.3
v 0.1 0.2 0.3
v -0.2 0.2 0.2
v -0.1 0.2 0.2
v 0 0.2 0.2
v 0.1 0.2 0.2
v 0.2 0.2 0.2
v -0.3 0.2 0.1
v -0.2 0.2 0.1
v -0.1 0.2 0.1
v 0.1 0.2 0.1
v 0.2 0.2 0.1
v 0.3 0.2 0.1
v -0.3 0.2 0
v -0.2 0.2 0
v -0.1 0.2 0
v 0.1 0.2 0
v 0.2 0.2 0
v 0.3 0.2 0
v -0.3 0.2 -0.2
v -0.2 0.2 -0.2
v -0.1 0.2 -0.2
v 0.1 0.2 -0.2
v 0.2 0.2 -0.2
v 0.3 0.2 -0.2
v -0.3 0.2 -0.3
v -0.1 0.2 -0.3
v 0.1 0.2 -0.3
v 0.3 0.2 -0.3
v -0.1 0.3 0.1
v 0 0.3 0.1
v 0.1 0.3 0.1
v -0.5 0.3 0
v -0.4 0.3 0
v -0.1 0.3 0
v 0.1 0.3 0
v 0.3 0.3 0
v 0.4 0.3 0
v -0.5 0.3 -0.1
v -0.4 0.3 -0.1
v -0.2 0.3 -0.1
v -0.1 0.3 -0.1
v 0.1 0.3 -0.1
v 0.2 0.3 -0.1
v 0.3 0.3 -0.1
v 0.4 0.3 -0.1
v -0.2 0.3 -0.2
v -0.1 0.3 -0.2
v 0 0.3 -0.2
v 0.1 0.3 -0.2
v 0.2 0.3 -0.2
v -0.2 0.3 -0.3
v -0.1 0.3 -0.3
v 0 0.3 -0.3
v 0.1 0.3 -0.3
v 0.2 0.3 -0.3
v 0.3 0.3 -0.3
v 0.4 0.3 -0.3
v 0.5 0.3 -0.3
v 0.6 0.3 -0.3
v -0.2 0.3 -0.4
v 0 0.3 -0.4
v 0.2 0.3 -0.4
v 0.3 0.3 -0.4
v 0.4 0.3 -0.4
v 0.5 0.3 -0.4
v 0.6 0.3 -0.4
v -0.4 0.4 0
v -0.3 0.4 0
v 0.4 0.4 0
v 0.5 0.4 0
v -0.4 0.4 -0.1
v -0.3 0.4 -0.1
v 0.4 0.4 -0.1
v 0.5 0.4 -0.1
v 0.6 0.4 -0.2
v 0.7 0.4 -0.2
v 0.2 0.4 -0.3
v 0.3 0.4 -0.3
v 0.4 0.4 -0.3
v 0.5 0.4 -0.3
v 0.6 0.4 -0.3
v 0.7 0.4 -0.3
v 0.2 0.4 -0.4
v 0.3 0.4 -0.4
v 0.4 0.4 -0.4
v 0.5 0.4 -0.4
v -0.4 0.5 0.1
v -0.3 0.5 0.1
v 0.3 0.5 0.1
v 0.4 0.5 0.1
v -0.8 0.5 0
v -0.7 0.5 0
v -0.4 0.5 0
v -0.3 0.5 0
v 0.4 0.5 0
v -0.8 0.5 -0.1
v -0.7 0.5 -0.1
v -0.4 0.5 -0.1
v -0.3 0.5 -0.1
v 0.4 0.5 -0.1
v 0.7 0.5 -0.1
v 0.8 0.5 -0.1
v -0.4 0.5 -0.2
v -0.3 0.5 -0.2
v 0.3 0.5 -0.2
v 0.4 0.5 -0.2
v 0.7 0.5 -0.2
v 0.8 0.5 -0.2
v 0.3 0.5 -0.3
v 0.4 0.5 -0.3
v 0.3 0.5 -0.4
v 0.4 0.5 -0.4
v -0.3 0.6 0.4
v -0.2 0.6 0.4
v 0.2 0.6 0.4
v 0.3 0.6 0.4
v -0.3 0.6 0.3
v -0.2 0.6 0.3
v 0.2 0.6 0.3
v 0.3 0.6 0.3
v -0.9 0.6 0
v -0.8 0.6 0
v 0.2 0.6 0
v 0.3 0.6 0
v 0.6 0.6 0
v 0.7 0.6 0
v -0.9 0.6 -0.1
v -0.8 0.6 -0.1
v 0.2 0.6 -0.1
v 0.3 0.6 -0.1
v 0.6 0.6 -0.1
v 0.7 0.6 -0.1
v 0.4 0.6 -0.2
v 0.5 0.6 -0.2
v 0.2 0.6 -0.3
v 0.3 0.6 -0.3
v 0.4 0.6 -0.3
v 0.5 0.6 -0.3
v 0.2 0.6 -0.4
v 0.3 0.6 -0.4
v -0.4 0.7 0.4
v -0.3 0.7 0.4
v 0.3 0.7 0.4
v 0.4 0.7 0.4
v -0.4 0.7 0.3
v -0.3 0.7 0.3
v 0.3 0.7 0.3
v 0.4 0.7 0.3
v -0.3 0.7 0.2
v -0.2 0.7 0.2
v 0.2 0.7 0.2
v 0.3 0.7 0.2
v -0.3 0.7 0.1
v -0.2 0.7 0.1
v 0.2 0.7 0.1
v 0.3 0.7 0.1
v -1 0.7 0
v -0.9 0.7 0
v -0.8 0.7 0
v -0.7 0.7 0
v -1 0.7 -0.1
v -0.9 0.7 -0.1
v -0.8 0.7 -0.1
v -0.7 0.7 -0.1
v 0.3 0.7 -0.1
v 0.4 0.7 -0.1
v -0.3 0.7 -0.2
v -0.2 0.7 -0.2
v 0.3 0.7 -0.2
v 0.4 0.7 -0.2
v -0.3 0.7 -0.3
v -0.2 0.7 -0.3
v -0.1 0.7 -0.3
v 0.1 0.7 -0.3
v 0.2 0.7 -0.3
v -0.2 0.7 -0.4
v -0.1 0.7 -0.4
v 0.1 0.7 -0.4
v 0.2 0.7 -0.4
v -0.4 0.8 0.1
v -0.3 0.8 0.1
v -0.2 0.8 0.1
v 0.2 0.8 0.1
v 0.3 0.8 0.1
v 0.4 0.8 0.1
v -0.7 0.8 0
v -0.6 0.8 0
v -0.3 0.8 0
v -0.2 0.8 0
v 0.2 0.8 0
v 0.3 0.8 0
v -0.7 0.8 -0.1
v -0.6 0.8 -0.1
v 0.3 0.8 -0.1
v 0.4 0.8 -0.1
v -0.4 0.8 -0.2
v -0.3 0.8 -0.2
v -0.2 0.8 -0.4
v -0.1 0.8 -0.4
v 0.1 0.8 -0.4
v 0.2 0.8 -0.4
v -0.2 0.8 -0.5
v -0.1 0.8 -0.5
v 0.1 0.8 -0.5
v 0.2 0.8 -0.5
v -0.2 0.9 0.4
v -0.1 0.9 0.4
v 0.1 0.9 0.4
v 0.2 0.9 0.4
v -0.5 0.9 0.3
v -0.4 0.9 0.3
v -0.3 0.9 0.3
v -0.2 0.9 0.3
v -0.1 0.9 0.3
v 0.1 0.9 0.3
v 0.2 0.9 0.3
v 0.3 0.9 0.3
v 0.4 0.9 0.3
v 0.5 0.9 0.3
v -0.5 0.9 0.2
v -0.4 0.9 0.2
v -0.3 0.9 0.2
v -0.1 0.9 0.2
v 0 0.9 0.2
v 0.3 0.9 0.2
v 0.4 0.9 0.2
v 0.5 0.9 0.2
v -0.4 0.9 0.1
v -0.3 0.9 0.1
v -0.1 0.9 0.1
v 0 0.9 0.1
v 0.3 0.9 0.1
v 0.4 0.9 0.1
v -0.4 0.9 -0.2
v -0.3 0.9 -0.2
v 0.3 0.9 -0.2
v 0.4 0.9 -0.2
v -0.4 0.9 -0.3
v -0.3 0.9 -0.3
v -0.2 0.9 -0.3
v -0.1 0.9 -0.3
v 0.1 0.9 -0.3
v 0.2 0.9 -0.3
v 0.3 0.9 -0.3
v 0.4 0.9 -0.3
v -0.3 0.9 -0.4
v -0.2 0.9 -0.4
v 0.2 0.9 -0.4
v 0.3 0.9 -0.4
v -0.1 0.9 -0.5
v 0.1 0.9 -0.5
v -0.5 1 0.4
v -0.4 1 0.4
v 0.4 1 0.4
v 0.5 1 0.4
v -0.5 1 0.3
v -0.4 1 0.3
v -0.3 1 0.3
v -0.2 1 0.3
v -0.1 1 0.3
v 0 1 0.3
v 0.1 1 0.3
v 0.2 1 0.3
v 0.3 1 0.3
v 0.4 1 0.3
v 0.5 1 0.3
v -0.3 1 0.2
v -0.2 1 0.2
v -0.1 1 0.2
v 0 1 0.2
v 0.2 1 0.2
v 0.3 1 0.2
v -0.2 1 0.1
v -0.1 1 0.1
v 0 1 0.1
v 0.2 1 0.1
v -0.8 1.2 0
v -0.7 1.2 0
v -0.8 1.2 -0.1
v -0.7 1.2 -0.1
v -0.5 0.4 0
v -0.4 0.4 0
v 0.3 0.4 0
v 0.4 0.4 0
v -0.5 0.4 -0.1
v -0.4 0.4 -0.1
v 0.3 0.4 -0.1
v 0.4 0.4 -0.1
v 0.3 0.4 -0.3
v 0.4 0.4 -0.3
v 0.5 0.4 -0.3
v 0.6 0.4 -0.3
v 0.3 0.4 -0.4
v 0.4 0.4 -0.4
v 0.5 0.4 -0.4
v 0.6 0.4 -0.4
v -0.1 0.5 0.3
v 0 0.5 0.3
v 0.1 0.5 0.3
v -0.1 0.5 0.2
v 0 0.5 0.2
v 0.1 0.5 0.2
v 0.2 0.5 0
v 0.3 0.5 0
v 0.4 0.5 0
v 0.5 0.5 0
v 0.2 0.5 -0.1
v 0.3 0.5 -0.1
v 0.4 0.5 -0.1
v 0.5 0.5 -0.1
v 0.6 0.5 -0.2
v 0.7 0.5 -0.2
v 0.2 0.5 -0.3
v 0.3 0.5 -0.3
v 0.4 0.5 -0.3
v 0.5 0.5 -0.3
v 0.6 0.5 -0.3
v 0.7 0.5 -0.3
v 0.2 0.5 -0.4
v 0.3 0.5 -0.4
v 0.4 0.5 -0.4
v 0.5 0.5 -0.4
v -0.1 0.6 0.2
v 0 0.6 0.2
v 0.1 0.6 0.2
v -0.4 0.6 0.1
v -0.3 0.6 0.1
v -0.1 0.6 0.1
v 0 0.6 0.1
v 0.1 0.6 0.1
v 0.3 0.6 0.1
v 0.4 0.6 0.1
v -0.8 0.6 0
v -0.7 0.6 0
v -0.4 0.6 0
v -0.3 0.6 0
v 0.3 0.6 0
v 0.4 0.6 0
v -0.8 0.6 -0.1
v -0.7 0.6 -0.1
v -0.4 0.6 -0.1
v -0.3 0.6 -0.1
v 0.3 0.6 -0.1
v 0.4 0.6 -0.1
v 0.7 0.6 -0.1
v 0.8 0.6 -0.1
v -0.4 0.6 -0.2
v -0.3 0.6 -0.2
v -0.2 0.6 -0.2
v 0.3 0.6 -0.2
v 0.4 0.6 -0.2
v 0.7 0.6 -0.2
v 0.8 0.6 -0.2
v -0.3 0.6 -0.3
v -0.2 0.6 -0.3
v -0.1 0.6 -0.3
v 0.1 0.6 -0.3
v 0.2 0.6 -0.3
v 0.3 0.6 -0.3
v 0.4 0.6 -0.3
v -0.2 0.6 -0.4
v -0.1 0.6 -0.4
v 0.1 0.6 -0.4
v 0.2 0.6 -0.4
v 0.3 0.6 -0.4
v 0.4 0.6 -0.4
v -0.2 0.7 0.2
v -0.1 0.7 0.2
v 0.1 0.7 0.2
v 0.2 0.7 0.2
v -0.3 0.7 0.1
v -0.2 0.7 0.1
v -0.1 0.7 0.1
v 0.1 0.7 0.1
v 0.2 0.7 0.1
v 0.3 0.7 0.1
v -0.4 0.7 0
v -0.3 0.7 0
v -0.2 0.7 0
v 0.2 0.7 0
v 0.3 0.7 0
v 0.4 0.7 0
v 0.6 0.7 0
v 0.7 0.7 0
v -0.4 0.7 -0.1
v -0.3 0.7 -0.1
v 0.3 0.7 -0.1
v 0.4 0.7 -0.1
v 0.6 0.7 -0.1
v 0.7 0.7 -0.1
v 0.4 0.7 -0.2
v 0.5 0.7 -0.2
v -0.1 0.7 -0.3
v 0.1 0.7 -0.3
v 0.2 0.7 -0.3
v 0.3 0.7 -0.3
v 0.4 0.7 -0.3
v 0.5 0.7 -0.3
v -0.1 0.7 -0.4
v 0.1 0.7 -0.4
v 0.2 0.7 -0.4
v 0.3 0.7 -0.4
v -0.2 0.8 0.4
v 0.2 0.8 0.4
v -0.2 0.8 0.3
v 0.2 0.8 0.3
v -0.7 1 0
v -0.6 1 0
v -0.7 1 -0.1
v -0.6 1 -0.1
v -0.5 1.1 0.4
v -0.4 1.1 0.4
v -0.3 1.1 0.4
v -0.2 1.1 0.4
v 0.2 1.1 0.4
v 0.3 1.1 0.4
v 0.4 1.1 0.4
v 0.5 1.1 0.4
v -0.4 1.1 0.3
v -0.3 1.1 0.3
v -0.2 1.1 0.3
v 0 1.1 0.3
v 0.2 1.1 0.3
v 0.3 1.1 0.3
v 0.4 1.1 0.3
v -0.5 1.1 0.2
v -0.4 1.1 0.2
v 0.4 1.1 0.2
v 0.5 1.1 0.2
v -1 1.1 0
v -0.9 1.1 0
v -0.8 1.1 0
v -0.7 1.1 0
v -0.6 1.1 0
v -0.5 1.1 0
v -1 1.1 -0.1
v -0.9 1.1 -0.1
v -0.8 1.1 -0.1
v -0.7 1.1 -0.1
v -0.6 1.1 -0.1
v -0.5 1.1 -0.1
v -0.2 1.1 -0.4
v 0.2 1.1 -0.4
v -0.2 1.1 -0.5
v 0.2 1.1 -0.5
v -0.4 1.2 0.4
v -0.3 1.2 0.4
v 0.3 1.2 0.4
v 0.4 1.2 0.4
v -0.4 1.2 0.3
v -0.3 1.2 0.3
v 0 1.2 0.3
v 0.2 1.2 0.3
v 0.3 1.2 0.3
v 0.4 1.2 0.3
v -0.4 1.2 0.2
v -0.3 1.2 0.2
v -0.2 1.2 0.2
v 0 1.2 0.2
v 0.2 1.2 0.2
v 0.3 1.2 0.2
v 0.4 1.2 0.2
v -0.4 1.2 0.1
v -0.3 1.2 0.1
v 0.3 1.2 0.1
v 0.4 1.2 0.1
v -0.9 1.2 0
v -0.8 1.2 0
v -0.9 1.2 -0.1
v -0.8 1.2 -0.1
v -0.4 1.2 -0.2
v -0.3 1.2 -0.2
v 0.3 1.2 -0.2
v 0.4 1.2 -0.2
v -0.4 1.2 -0.3
v -0.3 1.2 -0.3
v 0.3 1.2 -0.3
v 0.4 1.2 -0.3
v -0.3 1.2 -0.4
v 0.3 1.2 -0.4
v -0.3 1.3 0.2
v -0.2 1.3 0.2
v 0.3 1.3 0.2
v -0.4 1.3 0.1
v -0.3 1.3 0.1
v -0.2 1.3 0.1
v -0.1 1.3 0.1
v 0.2 1.3 0.1
v 0.3 1.3 0.1
v 0.4 1.3 0.1
v -0.8 1.3 0
v -0.7 1.3 0
v -0.8 1.3 -0.1
v -0.7 1.3 -0.1
v 0.2 1.3 -0.1
v 0.3 1.3 -0.1
v -0.4 1.3 -0.2
v -0.3 1.3 -0.2
v -0.2 1.3 -0.2
v -0.1 1.3 -0.2
v 0.2 1.3 -0.2
v 0.3 1.3 -0.2
v 0.4 1.3 -0.2
v -0.3 1.3 -0.3
v 0.3 1.3 -0.3
v -0.2 1.4 0.1
v -0.1 1.4 0.1
v 0.2 1.4 0.1
v -0.2 1.4 -0.2
v -0.1 1.4 -0.2
v 0.2 1.4 -0.2

# faces
f 3/18/1 2/18/1 1/18/1
f 4/18/1 2/18/1 3/18/1
f 5/16/1 4/16/1 3/16/1
f 6/16/1 4/16/1 5/16/1
f 9/18/1 8/18/1 7/18/1
f 10/18/1 8/18/1 9/18/1
f 13/16/1 12/16/1 11/16/1
f 14/16/1 12/16/1 13/16/1
f 17/18/1 16/18/1 15/18/1
f 18/18/1 16/18/1 17/18/1
f 21/16/1 20/16/1 19/16/1
f 22/16/1 20/16/1 21/16/1
f 25/8/1 24/8/1 23/8/1
f 26/8/1 24/8/1 25/8/1
f 29/6/1 28/6/1 27/6/1
f 30/6/1 28/6/1 29/6/1
f 34/17/1 32/17/1 31/17/1
f 35/17/1 34/17/1 33/17/1
f 36/17/1 32/17/1 34/17/1
f 36/17/1 34/17/1 35/17/1
f 40/21/1 38/21/1 37/21/1
f 41/21/1 38/21/1 40/21/1
f 43/20/1 40/20/1 39/20/1
f 44/21/1 42/21/1 41/21/1
f 44/20/1 40/20/1 43/20/1
f 44/21/1 41/21/1 40/21/1
f 45/21/1 42/21/1 44/21/1
f 46/21/1 42/21/1 45/21/1
f 49/20/1 45/20/1 44/20/1
f 50/20/1 45/20/1 49/20/1
f 51/17/1 48/17/1 47/17/1
f 52/17/1 48/17/1 51/17/1
f 55/15/1 52/15/1 51/15/1
f 56/15/1 52/15/1 55/15/1
f 58/20/1 54/20/1 53/20/1
f 59/20/1 54/20/1 58/20/1
f 60/20/1 54/20/1 59/20/1
f 61/20/1 54/20/1 60/20/1
f 63/17/1 56/17/1 55/17/1
f 64/17/1 56/17/1 63/17/1
f 65/20/1 58/20/1 57/20/1
f 65/15/1 59/15/1 58/15/1
f 66/20/1 60/20/1 59/20/1
f 66/15/1 59/15/1 65/15/1
f 67/15/1 61/15/1 60/15/1
f 67/20/1 60/20/1 66/20/1
f 68/20/1 62/20/1 61/20/1
f 68/15/1 61/15/1 67/15/1
f 71/20/1 66/20/1 65/20/1
f 71/20/1 65/20/1 57/20/1
f 72/20/1 66/20/1 71/20/1
f 73/15/1 67/15/1 66/15/1
f 73/20/1 66/20/1 72/20/1
f 74/20/1 68/20/1 67/20/1
f 74/15/1 67/15/1 73/15/1
f 75/20/1 62/20/1 68/20/1
f 75/20/1 68/20/1 74/20/1
f 76/17/1 70/17/1 69/17/1
f 77/15/1 71/15/1 70/15/1
f 77/17/1 70/17/1 76/17/1
f 78/20/1 72/20/1 71/20/1
f 78/15/1 71/15/1 77/15/1
f 79/15/1 73/15/1 72/15/1
f 79/20/1 72/20/1 78/20/1
f 80/20/1 74/20/1 73/20/1
f 80/15/1 73/15/1 79/15/1
f 81/15/1 75/15/1 74/15/1
f 81/20/1 74/20/1 80/20/1
f 82/20/1 62/20/1 75/20/1
f 82/15/1 75/15/1 81/15/1
f 83/20/1 62/20/1 82/20/1
f 84/20/1 81/20/1 80/20/1
f 84/20/1 82/20/1 81/20/1
f 84/20/1 80/20/1 79/20/1
f 85/20/1 82/20/1 84/20/1
f 90/22/1 87/22/1 86/22/1
f 91/21/1 88/21/1 87/21/1
f 91/22/1 87/22/1 90/22/1
f 92/21/1 88/21/1 91/21/1
f 94/20/1 90/20/1 89/20/1
f 94/22/1 93/22/1 92/22/1
f 94/22/1 92/22/1 91/22/1
f 94/22/1 91/22/1 90/22/1
f 95/22/1 93/22/1 94/22/1
f 96/20/1 94/20/1 89/20/1
f 97/21/1 95/21/1 94/21/1
f 97/20/1 94/20/1 96/20/1
f 98/21/1 95/21/1 97/21/1
f 99/22/1 97/22/1 96/22/1
f 100/22/1 97/22/1 99/22/1
f 101/21/1 95/21/1 98/21/1
f 102/22/1 93/22/1 95/22/1
f 102/21/1 95/21/1 101/21/1
f 108/22/1 93/22/1 102/22/1
f 109/22/1 93/22/1 108/22/1
f 110/15/1 104/15/1 103/15/1
f 111/15/1 104/15/1 110/15/1
f 113/5/1 106/5/1 105/5/1
f 114/5/1 106/5/1 113/5/1
f 115/5/1 108/5/1 107/5/1
f 116/5/1 108/5/1 115/5/1
f 118/5/1 113/5/1 112/5/1
f 119/5/1 117/5/1 116/5/1
f 119/5/1 116/5/1 115/5/1
f 119/5/1 115/5/1 114/5/1
f 120/5/1 117/5/1 119/5/1
f 121/5/1 117/5/1 120/5/1
f 122/5/1 118/5/1 112/5/1
f 123/5/1 118/5/1 122/5/1
f 124/19/1 121/19/1 120/19/1
f 125/19/1 121/19/1 124/19/1
f 130/20/1 126/20/1 125/20/1
f 131/20/1 126/20/1 130/20/1
f 132/20/1 128/20/1 127/20/1
f 133/20/1 128/20/1 132/20/1
f 134/20/1 130/20/1 129/20/1
f 135/20/1 130/20/1 134/20/1
f 138/8/1 137/8/1 136/8/1
f 139/8/1 137/8/1 138/8/1
f 142/22/1 141/22/1 140/22/1
f 143/22/1 141/22/1 142/22/1
f 146/20/1 143/20/1 142/20/1
f 147/20/1 146/20/1 142/20/1
f 148/20/1 146/20/1 147/20/1
f 149/21/1 148/21/1 147/21/1
f 150/21/1 148/21/1 149/21/1
f 152/19/1 145/19/1 144/19/1
f 153/19/1 145/19/1 152/19/1
f 154/5/1 150/5/1 149/5/1
f 155/5/1 150/5/1 154/5/1
f 157/5/1 152/5/1 151/5/1
f 158/5/1 152/5/1 157/5/1
f 160/3/1 156/3/1 155/3/1
f 161/3/1 156/3/1 160/3/1
f 162/5/1 159/5/1 158/5/1
f 163/5/1 159/5/1 162/5/1
f 165/20/1 163/20/1 162/20/1
f 165/20/1 164/20/1 163/20/1
f 166/20/1 164/20/1 165/20/1
f 167/20/1 164/20/1 166/20/1
f 168/20/1 164/20/1 167/20/1
f 171/20/1 170/20/1 169/20/1
f 172/20/1 170/20/1 171/20/1
f 175/20/1 174/20/1 173/20/1
f 176/20/1 175/20/1 173/20/1
f 177/20/1 175/20/1 176/20/1
f 180/5/1 179/5/1 178/5/1
f 181/5/1 179/5/1 180/5/1
f 184/5/1 183/5/1 182/5/1
f 185/5/1 183/5/1 184/5/1
f 189/8/1 187/8/1 186/8/1
f 190/8/1 187/8/1 189/8/1
f 193/21/1 189/21/1 188/21/1
f 194/1/1 190/1/1 189/1/1
f 194/21/1 189/21/1 193/21/1
f 195/1/1 190/1/1 194/1/1
f 196/20/1 192/20/1 191/20/1
f 197/20/1 192/20/1 196/20/1
f 200/5/1 199/5/1 198/5/1
f 201/5/1 199/5/1 200/5/1
f 204/5/1 203/5/1 202/5/1
f 205/5/1 203/5/1 204/5/1
f 207/20/1 205/20/1 204/20/1
f 207/20/1 206/20/1 205/20/1
f 208/20/1 206/20/1 207/20/1
f 211/22/1 210/22/1 209/22/1
f 212/22/1 210/22/1 211/22/1
f 213/21/1 212/21/1 211/21/1
f 214/21/1 212/21/1 213/21/1
f 219/5/1 216/5/1 215/5/1
f 220/5/1 216/5/1 219/5/1
f 223/5/1 218/5/1 217/5/1
f 224/22/1 222/22/1 221/22/1
f 225/22/1 222/22/1 224/22/1
f 226/5/1 223/5/1 217/5/1
f 227/5/1 226/5/1 217/5/1
f 228/5/1 226/5/1 227/5/1
f 231/5/1 230/5/1 229/5/1
f 232/5/1 230/5/1 231/5/1
f 237/14/1 234/14/1 233/14/1
f 238/14/1 234/14/1 237/14/1
f 239/5/1 236/5/1 235/5/1
f 240/5/1 236/5/1 239/5/1
f 243/15/1 242/15/1 241/15/1
f 244/15/1 242/15/1 243/15/1
f 247/17/1 246/17/1 245/17/1
f 248/17/1 246/17/1 247/17/1
f 253/20/1 250/20/1 249/20/1
f 254/20/1 250/20/1 253/20/1
f 255/5/1 252/5/1 251/5/1
f 256/5/1 252/5/1 255/5/1
f 259/5/1 258/5/1 257/5/1
f 260/5/1 258/5/1 259/5/1
f 263/5/1 262/5/1 261/5/1
f 264/5/1 262/5/1 263/5/1
f 267/5/1 266/5/1 265/5/1
f 268/5/1 266/5/1 267/5/1
f 271/5/1 270/5/1 269/5/1
f 272/5/1 270/5/1 271/5/1
f 275/5/1 274/5/1 273/5/1
f 276/5/1 274/5/1 275/5/1
f 277/18/2 278/18/2 279/18/2
f 279/18/2 278/18/2 280/18/2
f 281/16/2 282/16/2 283/16/2
f 283/16/2 282/16/2 284/16/2
f 285/18/2 286/18/2 287/18/2
f 287/18/2 286/18/2 288/18/2
f 289/20/2 290/20/2 291/20/2
f 291/20/2 290/20/2 292/20/2
f 293/18/2 294/18/2 295/18/2
f 295/18/2 294/18/2 296/18/2
f 297/16/2 298/16/2 299/16/2
f 299/16/2 298/16/2 300/16/2
f 301/8/2 302/8/2 303/8/2
f 303/8/2 302/8/2 304/8/2
f 305/8/2 306/8/2 307/8/2
f 307/8/2 306/8/2 308/8/2
f 307/6/2 308/6/2 309/6/2
f 309/6/2 308/6/2 310/6/2
f 309/21/2 310/21/2 311/21/2
f 311/21/2 310/21/2 312/21/2
f 311/6/2 312/6/2 313/6/2
f 313/6/2 312/6/2 314/6/2
f 315/1/2 316/1/2 317/1/2
f 317/1/2 316/1/2 318/1/2
f 319/15/2 320/15/2 321/15/2
f 321/15/2 320/15/2 322/15/2
f 323/17/2 324/17/2 325/17/2
f 325/17/2 324/17/2 326/17/2
f 327/21/2 328/21/2 329/21/2
f 329/21/2 328/21/2 330/21/2
f 329/22/2 330/22/2 331/22/2
f 331/22/2 330/22/2 332/22/2
f 333/5/2 334/5/2 337/5/2
f 335/22/2 336/22/2 338/22/2
f 338/22/2 336/22/2 339/22/2
f 333/5/2 337/5/2 340/5/2
f 333/5/2 340/5/2 341/5/2
f 341/5/2 340/5/2 342/5/2
f 343/8/2 344/8/2 346/8/2
f 346/8/2 344/8/2 347/8/2
f 345/21/2 346/21/2 350/21/2
f 346/1/2 347/1/2 351/1/2
f 350/21/2 346/21/2 351/21/2
f 351/1/2 347/1/2 352/1/2
f 348/22/2 349/22/2 353/22/2
f 353/22/2 349/22/2 354/22/2
f 355/5/2 356/5/2 357/5/2
f 357/5/2 356/5/2 358/5/2
f 359/5/2 360/5/2 361/5/2
f 361/5/2 360/5/2 362/5/2
f 361/20/2 362/20/2 364/20/2
f 362/20/2 363/20/2 364/20/2
f 364/20/2 363/20/2 365/20/2
f 366/5/2 367/5/2 368/5/2
f 368/5/2 367/5/2 369/5/2
f 370/21/2 371/21/2 372/21/2
f 370/21/2 372/21/2 373/21/2
f 373/21/2 372/21/2 374/21/2
f 373/19/2 374/19/2 375/19/2
f 375/19/2 374/19/2 376/19/2
f 377/5/2 378/5/2 379/5/2
f 379/5/2 378/5/2 380/5/2
f 381/8/2 382/8/2 383/8/2
f 383/8/2 382/8/2 384/8/2
f 385/21/2 386/21/2 387/21/2
f 387/21/2 386/21/2 388/21/2
f 387/19/2 388/19/2 391/19/2
f 391/19/2 388/19/2 392/19/2
f 389/21/2 390/21/2 393/21/2
f 393/21/2 390/21/2 394/21/2
f 391/20/2 392/20/2 395/20/2
f 395/20/2 392/20/2 396/20/2
f 395/21/2 396/21/2 401/21/2
f 401/21/2 396/21/2 402/21/2
f 397/12/2 398/12/2 403/12/2
f 403/12/2 398/12/2 404/12/2
f 399/5/2 400/5/2 405/5/2
f 405/5/2 400/5/2 406/5/2
f 401/5/2 402/5/2 407/5/2
f 407/5/2 402/5/2 408/5/2
f 408/1/2 409/1/2 412/1/2
f 412/1/2 409/1/2 413/1/2
f 410/5/2 411/5/2 414/5/2
f 414/5/2 411/5/2 415/5/2
f 414/20/2 415/20/2 417/20/2
f 415/20/2 416/20/2 417/20/2
f 417/20/2 416/20/2 418/20/2
f 418/20/2 416/20/2 419/20/2
f 419/20/2 416/20/2 420/20/2
f 421/19/2 422/19/2 424/19/2
f 422/19/2 423/19/2 424/19/2
f 424/19/2 423/19/2 425/19/2
f 426/21/2 427/21/2 430/21/2
f 427/22/2 428/22/2 431/22/2
f 430/21/2 427/21/2 431/21/2
f 431/22/2 428/22/2 432/22/2
f 429/20/2 430/20/2 434/20/2
f 430/20/2 431/20/2 434/20/2
f 431/21/2 432/21/2 435/21/2
f 434/20/2 431/20/2 435/20/2
f 432/20/2 433/20/2 436/20/2
f 435/21/2 432/21/2 436/21/2
f 436/20/2 433/20/2 437/20/2
f 429/20/2 434/20/2 438/20/2
f 438/20/2 434/20/2 439/20/2
f 436/21/2 437/21/2 440/21/2
f 435/21/2 436/21/2 440/21/2
f 440/21/2 437/21/2 441/21/2
f 440/21/2 441/21/2 443/21/2
f 438/21/2 439/21/2 443/21/2
f 439/21/2 440/21/2 443/21/2
f 443/21/2 441/21/2 444/21/2
f 441/5/2 442/5/2 445/5/2
f 444/21/2 441/21/2 445/21/2
f 445/5/2 442/5/2 446/5/2
f 444/21/2 445/21/2 452/21/2
f 452/21/2 445/21/2 453/21/2
f 447/15/2 448/15/2 455/15/2
f 455/15/2 448/15/2 456/15/2
f 449/5/2 450/5/2 458/5/2
f 458/5/2 450/5/2 459/5/2
f 453/5/2 454/5/2 460/5/2
f 451/5/2 452/5/2 460/5/2
f 452/5/2 453/5/2 460/5/2
f 460/5/2 454/5/2 461/5/2
f 461/5/2 454/5/2 462/5/2
f 462/5/2 454/5/2 463/5/2
f 457/5/2 458/5/2 464/5/2
f 459/4/2 460/4/2 465/4/2
f 465/4/2 460/4/2 466/4/2
f 461/5/2 462/5/2 467/5/2
f 467/5/2 462/5/2 468/5/2
f 457/5/2 464/5/2 469/5/2
f 469/5/2 464/5/2 470/5/2
f 467/19/2 468/19/2 471/19/2
f 471/19/2 468/19/2 472/19/2
f 472/20/2 473/20/2 477/20/2
f 477/20/2 473/20/2 478/20/2
f 474/19/2 475/19/2 479/19/2
f 479/19/2 475/19/2 480/19/2
f 476/20/2 477/20/2 481/20/2
f 481/20/2 477/20/2 482/20/2
f 483/1/2 484/1/2 487/1/2
f 487/1/2 484/1/2 488/1/2
f 485/5/2 486/5/2 489/5/2
f 489/5/2 486/5/2 490/5/2
f 491/14/2 492/14/2 497/14/2
f 492/14/2 493/14/2 497/14/2
f 493/14/2 494/14/2 497/14/2
f 497/14/2 494/14/2 498/14/2
f 498/14/2 494/14/2 499/14/2
f 499/14/2 494/14/2 500/14/2
f 495/5/2 496/5/2 501/5/2
f 501/5/2 496/5/2 502/5/2
f 498/14/2 499/14/2 505/14/2
f 505/14/2 499/14/2 506/14/2
f 503/17/2 504/17/2 508/17/2
f 508/17/2 504/17/2 509/17/2
f 506/5/2 507/5/2 511/5/2
f 511/5/2 507/5/2 512/5/2
f 508/15/2 509/15/2 513/15/2
f 513/15/2 509/15/2 514/15/2
f 510/19/2 511/19/2 516/19/2
f 511/19/2 512/19/2 516/19/2
f 516/19/2 512/19/2 517/19/2
f 517/19/2 512/19/2 518/19/2
f 518/19/2 512/19/2 519/19/2
f 513/17/2 514/17/2 521/17/2
f 521/17/2 514/17/2 522/17/2
f 515/19/2 516/19/2 523/19/2
f 516/15/2 517/15/2 523/15/2
f 517/19/2 518/19/2 524/19/2
f 523/15/2 517/15/2 524/15/2
f 518/15/2 519/15/2 525/15/2
f 524/19/2 518/19/2 525/19/2
f 519/19/2 520/19/2 526/19/2
f 525/15/2 519/15/2 526/15/2
f 523/19/2 524/19/2 529/19/2
f 515/19/2 523/19/2 529/19/2
f 529/19/2 524/19/2 530/19/2
f 524/15/2 525/15/2 531/15/2
f 530/19/2 524/19/2 531/19/2
f 525/19/2 526/19/2 532/19/2
f 531/15/2 525/15/2 532/15/2
f 526/19/2 520/19/2 533/19/2
f 532/19/2 526/19/2 533/19/2
f 527/17/2 528/17/2 534/17/2
f 528/15/2 529/15/2 535/15/2
f 534/17/2 528/17/2 535/17/2
f 529/19/2 530/19/2 536/19/2
f 535/15/2 529/15/2 536/15/2
f 530/15/2 531/15/2 537/15/2
f 536/19/2 530/19/2 537/19/2
f 531/19/2 532/19/2 538/19/2
f 537/15/2 531/15/2 538/15/2
f 532/15/2 533/15/2 539/15/2
f 538/19/2 532/19/2 539/19/2
f 533/19/2 520/19/2 540/19/2
f 539/15/2 533/15/2 540/15/2
f 540/19/2 520/19/2 541/19/2
f 538/19/2 539/19/2 542/19/2
f 539/19/2 540/19/2 542/19/2
f 537/19/2 538/19/2 542/19/2
f 542/19/2 540/19/2 543/19/2
f 544/20/2 545/20/2 548/20/2
f 548/20/2 545/20/2 549/20/2
f 546/5/2 547/5/2 550/5/2
f 550/5/2 547/5/2 551/5/2
f 552/5/2 553/5/2 554/5/2
f 554/5/2 553/5/2 555/5/2
f 556/17/2 557/17/2 559/17/2
f 558/17/2 559/17/2 560/17/2
f 559/17/2 557/17/2 561/17/2
f 560/17/2 559/17/2 561/17/2
f 562/5/2 563/5/2 564/5/2
f 564/5/2 563/5/2 565/5/2
f 566/5/2 567/5/2 568/5/2
f 568/5/2 567/5/2 569/5/2
f 570/5/2 571/5/2 572/5/2
f 572/5/2 571/5/2 573/5/2
f 574/5/2 575/5/2 576/5/2
f 576/5/2 575/5/2 577/5/2
f 583/17/3 579/17/3 578/17/3
f 584/17/3 579/17/3 583/17/3
f 587/17/3 581/17/3 580/17/3
f 588/15/3 582/15/3 581/15/3
f 588/17/3 581/17/3 587/17/3
f 589/17/3 585/17/3 584/17/3
f 589/15/3 582/15/3 588/15/3
f 589/17/3 583/17/3 582/17/3
f 589/17/3 584/17/3 583/17/3
f 590/17/3 585/17/3 589/17/3
f 591/17/3 585/17/3 590/17/3
f 592/17/3 585/17/3 591/17/3
f 593/15/3 587/15/3 586/15/3
f 593/15/3 588/15/3 587/15/3
f 594/15/3 588/15/3 593/15/3
f 595/22/3 589/22/3 588/22/3
f 595/15/3 588/15/3 594/15/3
f 596/15/3 590/15/3 589/15/3
f 596/22/3 589/22/3 595/22/3
f 597/17/3 591/17/3 590/17/3
f 597/15/3 590/15/3 596/15/3
f 598/17/3 591/17/3 597/17/3
f 599/17/3 597/17/3 596/17/3
f 600/15/3 598/15/3 597/15/3
f 600/17/3 597/17/3 599/17/3
f 601/15/3 600/15/3 599/15/3
f 602/15/3 598/15/3 600/15/3
f 602/15/3 600/15/3 601/15/3
f 603/17/3 594/17/3 593/17/3
f 604/15/3 595/15/3 594/15/3
f 604/17/3 594/17/3 603/17/3
f 605/15/3 595/15/3 604/15/3
f 606/17/3 602/17/3 601/17/3
f 607/15/3 598/15/3 602/15/3
f 607/17/3 602/17/3 606/17/3
f 608/15/3 598/15/3 607/15/3
f 609/15/3 605/15/3 604/15/3
f 609/15/3 604/15/3 603/15/3
f 610/15/3 605/15/3 609/15/3
f 611/22/3 606/22/3 605/22/3
f 611/15/3 605/15/3 610/15/3
f 612/15/3 607/15/3 606/15/3
f 612/22/3 606/22/3 611/22/3
f 613/17/3 608/17/3 607/17/3
f 613/15/3 607/15/3 612/15/3
f 614/17/3 608/17/3 613/17/3
f 616/17/3 611/17/3 610/17/3
f 617/15/3 612/15/3 611/15/3
f 617/17/3 611/17/3 616/17/3
f 618/17/3 614/17/3 613/17/3
f 618/15/3 612/15/3 617/15/3
f 618/17/3 615/17/3 614/17/3
f 618/17/3 613/17/3 612/17/3
f 619/17/3 615/17/3 618/17/3
f 620/17/3 615/17/3 619/17/3
f 621/17/3 615/17/3 620/17/3
f 622/17/3 620/17/3 619/17/3
f 623/17/3 620/17/3 622/17/3
f 626/17/3 625/17/3 624/17/3
f 627/17/3 625/17/3 626/17/3
f 630/18/3 629/18/3 628/18/3
f 633/20/3 632/20/3 631/20/3
f 634/20/3 632/20/3 633/20/3
f 635/20/3 632/20/3 634/20/3
f 636/18/3 629/18/3 630/18/3
f 637/18/3 629/18/3 636/18/3
f 638/21/3 634/21/3 633/21/3
f 639/19/3 635/19/3 634/19/3
f 639/21/3 634/21/3 638/21/3
f 640/19/3 635/19/3 639/19/3
f 641/17/3 637/17/3 636/17/3
f 642/17/3 637/17/3 641/17/3
f 643/15/3 642/15/3 641/15/3
f 644/15/3 642/15/3 643/15/3
f 647/17/3 646/17/3 645/17/3
f 648/17/3 646/17/3 647/17/3
f 658/5/3 650/5/3 649/5/3
f 658/5/3 651/5/3 650/5/3
f 659/5/3 651/5/3 658/5/3
f 660/20/3 653/20/3 652/20/3
f 661/20/3 653/20/3 660/20/3
f 662/22/3 655/22/3 654/22/3
f 663/20/3 656/20/3 655/20/3
f 663/22/3 655/22/3 662/22/3
f 664/21/3 657/21/3 656/21/3
f 664/20/3 656/20/3 663/20/3
f 665/5/3 658/5/3 657/5/3
f 665/21/3 657/21/3 664/21/3
f 666/5/3 658/5/3 665/5/3
f 669/20/3 665/20/3 664/20/3
f 670/20/3 665/20/3 669/20/3
f 671/5/3 668/5/3 667/5/3
f 672/5/3 668/5/3 671/5/3
f 673/19/3 661/19/3 660/19/3
f 677/19/3 670/19/3 669/19/3
f 678/19/3 670/19/3 677/19/3
f 680/21/3 675/21/3 674/21/3
f 681/19/3 676/19/3 675/19/3
f 681/21/3 675/21/3 680/21/3
f 682/20/3 677/20/3 676/20/3
f 682/19/3 676/19/3 681/19/3
f 683/21/3 678/21/3 677/21/3
f 683/20/3 677/20/3 682/20/3
f 684/5/3 679/5/3 678/5/3
f 684/21/3 678/21/3 683/21/3
f 685/5/3 679/5/3 684/5/3
f 687/19/3 661/19/3 673/19/3
f 688/5/3 686/5/3 685/5/3
f 689/5/3 686/5/3 688/5/3
f 690/5/3 686/5/3 689/5/3
f 691/19/3 661/19/3 687/19/3
f 692/19/3 661/19/3 691/19/3
f 701/20/3 694/20/3 693/20/3
f 702/20/3 694/20/3 701/20/3
f 704/20/3 696/20/3 695/20/3
f 705/20/3 696/20/3 704/20/3
f 706/20/3 698/20/3 697/20/3
f 707/20/3 698/20/3 706/20/3
f 708/20/3 700/20/3 699/20/3
f 709/20/3 700/20/3 708/20/3
f 710/22/3 701/22/3 700/22/3
f 710/20/3 700/20/3 709/20/3
f 711/5/3 703/5/3 702/5/3
f 711/22/3 701/22/3 710/22/3
f 711/5/3 702/5/3 701/5/3
f 712/5/3 703/5/3 711/5/3
f 713/5/3 703/5/3 712/5/3
f 720/3/3 714/3/3 713/3/3
f 721/23/3 715/23/3 714/23/3
f 721/3/3 714/3/3 720/3/3
f 722/5/3 716/5/3 715/5/3
f 722/23/3 715/23/3 721/23/3
f 723/5/3 716/5/3 722/5/3
f 724/20/3 718/20/3 717/20/3
f 725/20/3 718/20/3 724/20/3
f 726/11/3 720/11/3 719/11/3
f 727/3/3 721/3/3 720/3/3
f 727/11/3 720/11/3 726/11/3
f 728/1/3 722/1/3 721/1/3
f 728/3/3 721/3/3 727/3/3
f 729/1/3 722/1/3 728/1/3
f 731/10/3 727/10/3 726/10/3
f 732/1/3 728/1/3 727/1/3
f 732/10/3 727/10/3 731/10/3
f 732/1/3 729/1/3 728/1/3
f 733/1/3 729/1/3 732/1/3
f 734/5/3 730/5/3 729/5/3
f 734/1/3 729/1/3 733/1/3
f 740/1/3 733/1/3 732/1/3
f 741/23/3 734/23/3 733/23/3
f 741/1/3 733/1/3 740/1/3
f 742/5/3 730/5/3 734/5/3
f 742/23/3 734/23/3 741/23/3
f 743/5/3 730/5/3 742/5/3
f 744/19/3 725/19/3 724/19/3
f 745/19/3 725/19/3 744/19/3
f 746/20/3 736/20/3 735/20/3
f 746/20/3 737/20/3 736/20/3
f 747/21/3 738/21/3 737/21/3
f 747/20/3 737/20/3 746/20/3
f 748/5/3 739/5/3 738/5/3
f 748/21/3 738/21/3 747/21/3
f 748/5/3 740/5/3 739/5/3
f 749/5/3 740/5/3 748/5/3
f 750/5/3 740/5/3 749/5/3
f 755/14/3 749/14/3 748/14/3
f 756/14/3 749/14/3 755/14/3
f 757/19/3 752/19/3 751/19/3
f 758/19/3 752/19/3 757/19/3
f 759/19/3 754/19/3 753/19/3
f 760/19/3 754/19/3 759/19/3
f 765/18/3 762/18/3 761/18/3
f 766/16/3 763/16/3 762/16/3
f 766/18/3 762/18/3 765/18/3
f 767/16/3 763/16/3 766/16/3
f 770/18/3 765/18/3 764/18/3
f 771/21/3 766/21/3 765/21/3
f 771/21/3 767/21/3 766/21/3
f 771/18/3 765/18/3 770/18/3
f 772/21/3 767/21/3 771/21/3
f 773/16/3 768/16/3 767/16/3
f 773/21/3 767/21/3 772/21/3
f 774/16/3 768/16/3 773/16/3
f 776/18/3 770/18/3 769/18/3
f 777/18/3 770/18/3 776/18/3
f 778/20/3 772/20/3 771/20/3
f 779/20/3 772/20/3 778/20/3
f 780/18/3 773/18/3 772/18/3
f 780/20/3 772/20/3 779/20/3
f 781/18/3 773/18/3 780/18/3
f 782/18/3 773/18/3 781/18/3
f 783/16/3 775/16/3 774/16/3
f 784/16/3 775/16/3 783/16/3
f 786/21/3 781/21/3 780/21/3
f 786/21/3 780/21/3 779/21/3
f 787/21/3 781/21/3 786/21/3
f 788/21/3 781/21/3 787/21/3
f 790/8/3 786/8/3 785/8/3
f 791/8/3 786/8/3 790/8/3
f 792/8/3 786/8/3 791/8/3
f 793/6/3 787/6/3 786/6/3
f 793/8/3 786/8/3 792/8/3
f 794/21/3 788/21/3 787/21/3
f 794/6/3 787/6/3 793/6/3
f 795/6/3 789/6/3 788/6/3
f 795/21/3 788/21/3 794/21/3
f 796/6/3 789/6/3 795/6/3
f 797/1/3 792/1/3 791/1/3
f 798/1/3 792/1/3 797/1/3
f 804/21/3 799/21/3 798/21/3
f 805/21/3 799/21/3 804/21/3
f 806/20/3 801/20/3 800/20/3
f 807/20/3 801/20/3 806/20/3
f 810/22/3 803/22/3 802/22/3
f 811/22/3 803/22/3 810/22/3
f 812/5/3 808/5/3 807/5/3
f 813/5/3 808/5/3 812/5/3
f 814/8/3 811/8/3 810/8/3
f 814/8/3 810/8/3 809/8/3
f 815/8/3 811/8/3 814/8/3
f 818/8/3 817/8/3 816/8/3
f 819/8/3 817/8/3 818/8/3
f 820/8/3 817/8/3 819/8/3
f 823/21/3 820/21/3 819/21/3
f 824/21/3 820/21/3 823/21/3
f 828/4/3 822/4/3 821/4/3
f 829/4/3 822/4/3 828/4/3
f 830/1/3 826/1/3 825/1/3
f 831/1/3 826/1/3 830/1/3
f 833/14/3 828/14/3 827/14/3
f 834/14/3 828/14/3 833/14/3
f 835/20/3 832/20/3 831/20/3
f 836/20/3 832/20/3 835/20/3
f 839/5/3 838/5/3 837/5/3
f 840/5/3 838/5/3 839/5/3
f 843/21/3 842/21/3 841/21/3
f 844/21/3 842/21/3 843/21/3
f 847/5/3 846/5/3 845/5/3
f 848/5/3 846/5/3 847/5/3
f 851/5/3 850/5/3 849/5/3
f 852/5/3 850/5/3 851/5/3
f 855/22/3 854/22/3 853/22/3
f 856/22/3 854/22/3 855/22/3
f 859/20/3 858/20/3 857/20/3
f 860/20/3 858/20/3 859/20/3
f 863/5/3 862/5/3 861/5/3
f 864/5/3 862/5/3 863/5/3
f 867/5/3 866/5/3 865/5/3
f 868/5/3 866/5/3 867/5/3
f 873/5/3 870/5/3 869/5/3
f 874/5/3 870/5/3 873/5/3
f 875/5/3 872/5/3 871/5/3
f 876/5/3 872/5/3 875/5/3
f 878/5/3 875/5/3 874/5/3
f 879/5/3 875/5/3 878/5/3
f 880/5/3 878/5/3 877/5/3
f 881/5/3 878/5/3 880/5/3
f 882/17/4 883/17/4 886/17/4
f 883/15/4 884/15/4 887/15/4
f 886/17/4 883/17/4 887/17/4
f 887/15/4 884/15/4 888/15/4
f 885/15/4 886/15/4 890/15/4
f 886/15/4 887/15/4 890/15/4
f 890/15/4 887/15/4 891/15/4
f 887/22/4 888/22/4 892/22/4
f 891/15/4 887/15/4 892/15/4
f 888/15/4 889/15/4 893/15/4
f 892/22/4 888/22/4 893/22/4
f 893/15/4 889/15/4 894/15/4
f 893/17/4 894/17/4 895/17/4
f 895/17/4 894/17/4 896/17/4
f 895/15/4 896/15/4 897/15/4
f 895/15/4 897/15/4 898/15/4
f 898/15/4 897/15/4 899/15/4
f 890/17/4 891/17/4 900/17/4
f 891/15/4 892/15/4 901/15/4
f 900/17/4 891/17/4 901/17/4
f 901/15/4 892/15/4 902/15/4
f 898/17/4 899/17/4 903/17/4
f 903/17/4 899/17/4 904/17/4
f 901/15/4 902/15/4 905/15/4
f 900/15/4 901/15/4 905/15/4
f 905/15/4 902/15/4 906/15/4
f 902/22/4 903/22/4 907/22/4
f 906/15/4 902/15/4 907/15/4
f 903/15/4 904/15/4 908/15/4
f 907/22/4 903/22/4 908/22/4
f 908/15/4 904/15/4 909/15/4
f 906/17/4 907/17/4 910/17/4
f 907/15/4 908/15/4 911/15/4
f 910/17/4 907/17/4 911/17/4
f 911/15/4 908/15/4 912/15/4
f 913/17/4 914/17/4 915/17/4
f 915/17/4 914/17/4 916/17/4
f 917/17/4 918/17/4 919/17/4
f 919/17/4 918/17/4 920/17/4
f 921/5/4 922/5/4 923/5/4
f 923/5/4 922/5/4 924/5/4
f 925/21/4 926/21/4 927/21/4
f 925/21/4 927/21/4 928/21/4
f 928/21/4 927/21/4 929/21/4
f 930/5/4 931/5/4 932/5/4
f 932/5/4 931/5/4 933/5/4
f 934/5/4 935/5/4 936/5/4
f 936/5/4 935/5/4 937/5/4
f 938/18/4 939/18/4 942/18/4
f 939/16/4 940/16/4 943/16/4
f 942/18/4 939/18/4 943/18/4
f 943/16/4 940/16/4 944/16/4
f 941/18/4 942/18/4 947/18/4
f 942/21/4 943/21/4 948/21/4
f 943/21/4 944/21/4 948/21/4
f 947/18/4 942/18/4 948/18/4
f 948/21/4 944/21/4 949/21/4
f 944/16/4 945/16/4 950/16/4
f 949/21/4 944/21/4 950/21/4
f 950/16/4 945/16/4 951/16/4
f 946/18/4 947/18/4 953/18/4
f 953/18/4 947/18/4 954/18/4
f 948/20/4 949/20/4 955/20/4
f 955/20/4 949/20/4 956/20/4
f 949/18/4 950/18/4 957/18/4
f 956/20/4 949/20/4 957/20/4
f 957/18/4 950/18/4 958/18/4
f 958/18/4 950/18/4 959/18/4
f 951/16/4 952/16/4 960/16/4
f 960/16/4 952/16/4 961/16/4
f 957/21/4 958/21/4 963/21/4
f 956/21/4 957/21/4 963/21/4
f 963/21/4 958/21/4 964/21/4
f 964/21/4 958/21/4 965/21/4
f 962/8/4 963/8/4 967/8/4
f 967/8/4 963/8/4 968/8/4
f 968/8/4 963/8/4 969/8/4
f 963/6/4 964/6/4 970/6/4
f 969/8/4 963/8/4 970/8/4
f 964/21/4 965/21/4 971/21/4
f 970/6/4 964/6/4 971/6/4
f 965/6/4 966/6/4 972/6/4
f 971/21/4 965/21/4 972/21/4
f 972/6/4 966/6/4 973/6/4
f 968/1/4 969/1/4 974/1/4
f 974/1/4 969/1/4 975/1/4
f 975/21/4 976/21/4 979/21/4
f 979/21/4 976/21/4 980/21/4
f 977/20/4 978/20/4 981/20/4
f 981/20/4 978/20/4 982/20/4
f 983/8/4 984/8/4 987/8/4
f 984/8/4 985/8/4 987/8/4
f 985/1/4 986/1/4 988/1/4
f 987/8/4 985/8/4 988/8/4
f 988/1/4 986/1/4 989/1/4
f 990/8/4 991/8/4 993/8/4
f 993/8/4 991/8/4 994/8/4
f 991/1/4 992/1/4 995/1/4
f 994/8/4 991/8/4 995/8/4
f 995/1/4 992/1/4 996/1/4
f 997/1/4 998/1/4 1001/1/4
f 1001/1/4 998/1/4 1002/1/4
f 999/14/4 1000/14/4 1004/14/4
f 1004/14/4 1000/14/4 1005/14/4
f 1002/20/4 1003/20/4 1006/20/4
f 1006/20/4 1003/20/4 1007/20/4
f 1008/5/4 1009/5/4 1010/5/4
f 1010/5/4 1009/5/4 1011/5/4
f 1012/21/4 1013/21/4 1020/21/4
f 1020/21/4 1013/21/4 1021/21/4
f 1014/20/4 1015/20/4 1023/20/4
f 1023/20/4 1015/20/4 1024/20/4
f 1016/20/4 1017/20/4 1025/20/4
f 1025/20/4 1017/20/4 1026/20/4
f 1018/21/4 1019/21/4 1027/21/4
f 1027/21/4 1019/21/4 1028/21/4
f 1021/5/4 1022/5/4 1029/5/4
f 1029/5/4 1022/5/4 1030/5/4
f 1031/20/4 1032/20/4 1033/20/4
f 1033/20/4 1032/20/4 1034/20/4
f 1033/19/4 1034/19/4 1037/19/4
f 1037/19/4 1034/19/4 1038/19/4
f 1035/22/4 1036/22/4 1039/22/4
f 1039/22/4 1036/22/4 1040/22/4
f 1041/14/4 1042/14/4 1048/14/4
f 1048/14/4 1042/14/4 1049/14/4
f 1043/5/4 1044/5/4 1050/5/4
f 1044/19/4 1045/19/4 1051/19/4
f 1050/5/4 1044/5/4 1051/5/4
f 1051/19/4 1045/19/4 1052/19/4
f 1046/19/4 1047/19/4 1053/19/4
f 1053/19/4 1047/19/4 1054/19/4
f 1055/5/4 1056/5/4 1057/5/4
f 1057/5/4 1056/5/4 1058/5/4
f 1059/20/4 1060/20/4 1065/20/4
f 1065/20/4 1060/20/4 1066/20/4
f 1061/22/4 1062/22/4 1068/22/4
f 1068/22/4 1062/22/4 1069/22/4
f 1063/5/4 1064/5/4 1070/5/4
f 1064/19/4 1065/19/4 1071/19/4
f 1070/5/4 1064/5/4 1071/5/4
f 1071/19/4 1065/19/4 1072/19/4
f 1061/22/4 1068/22/4 1073/22/4
f 1073/22/4 1068/22/4 1074/22/4
f 1069/5/4 1070/5/4 1075/5/4
f 1075/5/4 1070/5/4 1076/5/4
f 1076/5/4 1077/5/4 1082/5/4
f 1077/20/4 1078/20/4 1083/20/4
f 1082/5/4 1077/5/4 1083/5/4
f 1083/20/4 1078/20/4 1084/20/4
f 1079/20/4 1080/20/4 1085/20/4
f 1081/4/4 1082/4/4 1088/4/4
f 1088/4/4 1082/4/4 1089/4/4
f 1079/20/4 1085/20/4 1092/20/4
f 1085/21/4 1086/21/4 1093/21/4
f 1092/20/4 1085/20/4 1093/20/4
f 1093/21/4 1086/21/4 1094/21/4
f 1087/21/4 1088/21/4 1095/21/4
f 1095/21/4 1088/21/4 1096/21/4
f 1089/5/4 1090/5/4 1097/5/4
f 1090/19/4 1091/19/4 1098/19/4
f 1097/5/4 1090/5/4 1098/5/4
f 1098/19/4 1091/19/4 1099/19/4
f 1066/20/4 1067/20/4 1100/20/4
f 1100/20/4 1067/20/4 1101/20/4
f 1099/19/4 1100/19/4 1104/19/4
f 1104/19/4 1100/19/4 1105/19/4
f 1102/5/4 1103/5/4 1106/5/4
f 1106/5/4 1103/5/4 1107/5/4
f 1108/5/4 1109/5/4 1110/5/4
f 1110/5/4 1109/5/4 1111/5/4
f 1112/20/4 1113/20/4 1118/20/4
f 1118/20/4 1113/20/4 1119/20/4
f 1114/19/4 1115/19/4 1120/19/4
f 1120/19/4 1115/19/4 1121/19/4
f 1121/19/4 1115/19/4 1122/19/4
f 1116/5/4 1117/5/4 1123/5/4
f 1123/5/4 1117/5/4 1124/5/4
f 1114/19/4 1120/19/4 1125/19/4
f 1120/17/4 1121/17/4 1126/17/4
f 1125/19/4 1120/19/4 1126/19/4
f 1121/19/4 1122/19/4 1127/19/4
f 1126/17/4 1121/17/4 1127/17/4
f 1122/5/4 1123/5/4 1128/5/4
f 1127/19/4 1122/19/4 1128/19/4
f 1125/21/4 1126/21/4 1129/21/4
f 1126/17/4 1127/17/4 1129/17/4
f 1127/17/4 1128/17/4 1129/17/4
f 1129/17/4 1128/17/4 1130/17/4
f 1128/5/4 1123/5/4 1131/5/4
f 1130/17/4 1128/17/4 1131/17/4
f 1131/5/4 1123/5/4 1132/5/4
f 1129/21/4 1130/21/4 1134/21/4
f 1125/21/4 1129/21/4 1134/21/4
f 1134/21/4 1130/21/4 1135/21/4
f 1130/5/4 1131/5/4 1136/5/4
f 1135/21/4 1130/21/4 1136/21/4
f 1136/5/4 1131/5/4 1137/5/4
f 1132/5/4 1133/5/4 1138/5/4
f 1138/5/4 1133/5/4 1139/5/4
f 1119/20/4 1113/20/4 1141/20/4
f 1135/5/4 1136/5/4 1143/5/4
f 1143/5/4 1136/5/4 1144/5/4
f 1137/5/4 1138/5/4 1145/5/4
f 1145/5/4 1138/5/4 1146/5/4
f 1140/20/4 1141/20/4 1147/20/4
f 1141/20/4 1113/20/4 1148/20/4
f 1147/20/4 1141/20/4 1148/20/4
f 1142/5/4 1143/5/4 1149/5/4
f 1149/5/4 1143/5/4 1150/5/4
f 1144/5/4 1145/5/4 1151/5/4
f 1151/5/4 1145/5/4 1152/5/4
f 1150/5/4 1151/5/4 1154/5/4
f 1154/5/4 1151/5/4 1155/5/4
f 1153/5/4 1154/5/4 1156/5/4
f 1156/5/4 1154/5/4 1157/5/4
f 1158/20/4 1159/20/4 1160/20/4
f 1160/20/4 1159/20/4 1161/20/4
f 1161/20/4 1159/20/4 1163/20/4
f 1162/20/4 1163/20/4 1164/20/4
f 1163/20/4 1159/20/4 1165/20/4
f 1164/20/4 1163/20/4 1165/20/4
f 1172/8/5 1167/8/5 1166/8/5
f 1173/8/5 1167/8/5 1172/8/5
f 1174/8/5 1169/8/5 1168/8/5
f 1175/8/5 1169/8/5 1174/8/5
f 1176/8/5 1171/8/5 1170/8/5
f 1177/8/5 1171/8/5 1176/8/5
f 1182/22/5 1179/22/5 1178/22/5
f 1183/22/5 1179/22/5 1182/22/5
f 1184/21/5 1181/21/5 1180/21/5
f 1185/21/5 1181/21/5 1184/21/5
f 1186/21/5 1183/21/5 1182/21/5
f 1187/21/5 1183/21/5 1186/21/5
f 1188/22/5 1185/22/5 1184/22/5
f 1189/22/5 1185/22/5 1188/22/5
f 1194/20/5 1191/20/5 1190/20/5
f 1195/21/5 1192/21/5 1191/21/5
f 1195/20/5 1191/20/5 1194/20/5
f 1196/21/5 1192/21/5 1195/21/5
f 1199/22/5 1194/22/5 1193/22/5
f 1200/21/5 1197/21/5 1196/21/5
f 1200/21/5 1195/21/5 1194/21/5
f 1200/22/5 1194/22/5 1199/22/5
f 1200/21/5 1196/21/5 1195/21/5
f 1201/21/5 1197/21/5 1200/21/5
f 1202/21/5 1197/21/5 1201/21/5
f 1204/20/5 1199/20/5 1198/20/5
f 1205/21/5 1200/21/5 1199/21/5
f 1205/20/5 1199/20/5 1204/20/5
f 1206/21/5 1200/21/5 1205/21/5
f 1207/21/5 1202/21/5 1201/21/5
f 1208/20/5 1203/20/5 1202/20/5
f 1208/21/5 1202/21/5 1207/21/5
f 1209/20/5 1203/20/5 1208/20/5
f 1216/22/5 1211/22/5 1210/22/5
f 1216/22/5 1212/22/5 1211/22/5
f 1217/22/5 1212/22/5 1216/22/5
f 1218/20/5 1215/20/5 1214/20/5
f 1218/20/5 1214/20/5 1213/20/5
f 1219/20/5 1215/20/5 1218/20/5
f 1225/13/5 1221/13/5 1220/13/5
f 1226/10/5 1222/10/5 1221/10/5
f 1229/1/5 1224/1/5 1223/1/5
f 1230/1/5 1224/1/5 1229/1/5
f 1232/13/5 1221/13/5 1225/13/5
f 1233/10/5 1226/10/5 1221/10/5
f 1235/1/5 1228/1/5 1227/1/5
f 1236/1/5 1228/1/5 1235/1/5
f 1237/21/5 1232/21/5 1231/21/5
f 1238/13/5 1221/13/5 1232/13/5
f 1238/21/5 1232/21/5 1237/21/5
f 1239/10/5 1233/10/5 1221/10/5
f 1239/13/5 1221/13/5 1238/13/5
f 1240/21/5 1234/21/5 1233/21/5
f 1240/10/5 1233/10/5 1239/10/5
f 1241/21/5 1234/21/5 1240/21/5
f 1243/21/5 1239/21/5 1238/21/5
f 1243/21/5 1240/21/5 1239/21/5
f 1244/21/5 1240/21/5 1243/21/5
f 1245/21/5 1240/21/5 1244/21/5
f 1251/19/5 1243/19/5 1242/19/5
f 1251/19/5 1244/19/5 1243/19/5
f 1252/21/5 1246/21/5 1245/21/5
f 1252/19/5 1244/19/5 1251/19/5
f 1252/21/5 1245/21/5 1244/21/5
f 1253/21/5 1246/21/5 1252/21/5
f 1254/5/5 1248/5/5 1247/5/5
f 1255/5/5 1248/5/5 1254/5/5
f 1256/5/5 1250/5/5 1249/5/5
f 1257/5/5 1250/5/5 1256/5/5
f 1262/21/5 1259/21/5 1258/21/5
f 1263/21/5 1259/21/5 1262/21/5
f 1264/20/5 1261/20/5 1260/20/5
f 1265/20/5 1261/20/5 1264/20/5
f 1272/5/5 1267/5/5 1266/5/5
f 1273/5/5 1267/5/5 1272/5/5
f 1274/5/5 1269/5/5 1268/5/5
f 1275/5/5 1269/5/5 1274/5/5
f 1276/5/5 1271/5/5 1270/5/5
f 1277/5/5 1271/5/5 1276/5/5
f 1284/20/5 1279/20/5 1278/20/5
f 1285/20/5 1279/20/5 1284/20/5
f 1286/14/5 1281/14/5 1280/14/5
f 1287/18/5 1283/18/5 1282/18/5
f 1288/18/5 1283/18/5 1287/18/5
f 1291/14/5 1286/14/5 1280/14/5
f 1294/21/5 1290/21/5 1289/21/5
f 1295/21/5 1290/21/5 1294/21/5
f 1296/14/5 1291/14/5 1280/14/5
f 1297/14/5 1291/14/5 1296/14/5
f 1298/5/5 1293/5/5 1292/5/5
f 1299/5/5 1293/5/5 1298/5/5
f 1302/5/5 1301/5/5 1300/5/5
f 1303/5/5 1301/5/5 1302/5/5
f 1308/15/5 1305/15/5 1304/15/5
f 1309/17/5 1306/17/5 1305/17/5
f 1309/15/5 1305/15/5 1308/15/5
f 1310/15/5 1307/15/5 1306/15/5
f 1310/17/5 1306/17/5 1309/17/5
f 1311/15/5 1307/15/5 1310/15/5
f 1318/18/5 1313/18/5 1312/18/5
f 1319/18/5 1313/18/5 1318/18/5
f 1320/13/5 1315/13/5 1314/13/5
f 1321/13/5 1315/13/5 1320/13/5
f 1322/5/5 1317/5/5 1316/5/5
f 1323/5/5 1317/5/5 1322/5/5
f 1328/5/5 1325/5/5 1324/5/5
f 1329/5/5 1325/5/5 1328/5/5
f 1330/5/5 1327/5/5 1326/5/5
f 1331/5/5 1327/5/5 1330/5/5
f 1336/17/5 1333/17/5 1332/17/5
f 1337/17/5 1333/17/5 1336/17/5
f 1338/17/5 1335/17/5 1334/17/5
f 1339/17/5 1335/17/5 1338/17/5
f 1344/5/5 1341/5/5 1340/5/5
f 1345/5/5 1341/5/5 1344/5/5
f 1346/5/5 1343/5/5 1342/5/5
f 1347/5/5 1343/5/5 1346/5/5
f 1352/18/5 1349/18/5 1348/18/5
f 1353/18/5 1349/18/5 1352/18/5
f 1354/20/5 1351/20/5 1350/20/5
f 1355/20/5 1351/20/5 1354/20/5
f 1360/5/5 1357/5/5 1356/5/5
f 1361/5/5 1357/5/5 1360/5/5
f 1362/5/5 1359/5/5 1358/5/5
f 1363/5/5 1359/5/5 1362/5/5
f 1367/5/5 1364/5/5 1363/5/5
f 1368/5/5 1364/5/5 1367/5/5
f 1369/5/5 1366/5/5 1365/5/5
f 1370/5/5 1366/5/5 1369/5/5
f 1379/20/5 1372/20/5 1371/20/5
f 1379/2/5 1373/2/5 1372/2/5
f 1380/2/5 1373/2/5 1379/2/5
f 1381/5/5 1375/5/5 1374/5/5
f 1382/19/5 1376/19/5 1375/19/5
f 1382/5/5 1375/5/5 1381/5/5
f 1383/21/5 1378/21/5 1377/21/5
f 1384/21/5 1378/21/5 1383/21/5
f 1385/19/5 1376/19/5 1382/19/5
f 1386/19/5 1376/19/5 1385/19/5
f 1387/20/5 1379/20/5 1371/20/5
f 1388/20/5 1379/20/5 1387/20/5
f 1393/20/5 1390/20/5 1389/20/5
f 1394/20/5 1390/20/5 1393/20/5
f 1395/20/5 1392/20/5 1391/20/5
f 1396/20/5 1392/20/5 1395/20/5
f 1404/17/5 1398/17/5 1397/17/5
f 1405/15/5 1399/15/5 1398/15/5
f 1405/17/5 1398/17/5 1404/17/5
f 1406/17/5 1400/17/5 1399/17/5
f 1406/15/5 1399/15/5 1405/15/5
f 1407/17/5 1400/17/5 1406/17/5
f 1411/17/5 1402/17/5 1401/17/5
f 1412/15/5 1403/15/5 1402/15/5
f 1412/17/5 1402/17/5 1411/17/5
f 1413/15/5 1403/15/5 1412/15/5
f 1416/15/5 1409/15/5 1408/15/5
f 1417/17/5 1410/17/5 1409/17/5
f 1417/15/5 1409/15/5 1416/15/5
f 1418/17/5 1410/17/5 1417/17/5
f 1419/20/5 1413/20/5 1412/20/5
f 1420/20/5 1413/20/5 1419/20/5
f 1421/5/5 1415/5/5 1414/5/5
f 1422/5/5 1415/5/5 1421/5/5
f 1423/19/5 1417/19/5 1416/19/5
f 1424/19/5 1417/19/5 1423/19/5
f 1429/20/5 1426/20/5 1425/20/5
f 1430/20/5 1426/20/5 1429/20/5
f 1435/19/5 1428/19/5 1427/19/5
f 1436/19/5 1428/19/5 1435/19/5
f 1437/20/5 1431/20/5 1430/20/5
f 1438/20/5 1431/20/5 1437/20/5
f 1439/20/5 1435/20/5 1434/20/5
f 1440/20/5 1435/20/5 1439/20/5
f 1441/20/5 1433/20/5 1432/20/5
f 1442/20/5 1433/20/5 1441/20/5
f 1447/17/5 1444/17/5 1443/17/5
f 1448/17/5 1444/17/5 1447/17/5
f 1456/17/5 1446/17/5 1445/17/5
f 1457/17/5 1446/17/5 1456/17/5
f 1458/18/5 1450/18/5 1449/18/5
f 1458/18/5 1451/18/5 1450/18/5
f 1458/18/5 1452/18/5 1451/18/5
f 1459/18/5 1452/18/5 1458/18/5
f 1460/18/5 1452/18/5 1459/18/5
f 1461/17/5 1455/17/5 1454/17/5
f 1461/18/5 1452/18/5 1460/18/5
f 1461/17/5 1454/17/5 1453/17/5
f 1461/17/5 1453/17/5 1452/17/5
f 1462/17/5 1455/17/5 1461/17/5
f 1463/17/5 1455/17/5 1462/17/5
f 1464/19/5 1460/19/5 1459/19/5
f 1465/19/5 1460/19/5 1464/19/5
f 1466/19/5 1462/19/5 1461/19/5
f 1467/19/5 1462/19/5 1466/19/5
f 1470/16/5 1469/16/5 1468/16/5
f 1471/16/5 1469/16/5 1470/16/5
f 1472/1/6 1473/1/6 1476/1/6
f 1476/1/6 1473/1/6 1477/1/6
f 1474/1/6 1475/1/6 1478/1/6
f 1478/1/6 1475/1/6 1479/1/6
f 1480/5/6 1481/5/6 1484/5/6
f 1484/5/6 1481/5/6 1485/5/6
f 1482/5/6 1483/5/6 1486/5/6
f 1486/5/6 1483/5/6 1487/5/6
f 1488/20/6 1489/20/6 1491/20/6
f 1489/19/6 1490/19/6 1492/19/6
f 1491/20/6 1489/20/6 1492/20/6
f 1492/19/6 1490/19/6 1493/19/6
f 1494/21/6 1495/21/6 1498/21/6
f 1498/21/6 1495/21/6 1499/21/6
f 1496/20/6 1497/20/6 1500/20/6
f 1500/20/6 1497/20/6 1501/20/6
f 1502/5/6 1503/5/6 1508/5/6
f 1508/5/6 1503/5/6 1509/5/6
f 1504/5/6 1505/5/6 1510/5/6
f 1510/5/6 1505/5/6 1511/5/6
f 1506/5/6 1507/5/6 1512/5/6
f 1512/5/6 1507/5/6 1513/5/6
f 1514/20/6 1515/20/6 1519/20/6
f 1515/19/6 1516/19/6 1520/19/6
f 1519/20/6 1515/20/6 1520/20/6
f 1520/19/6 1516/19/6 1521/19/6
f 1517/20/6 1518/20/6 1526/20/6
f 1526/20/6 1518/20/6 1527/20/6
f 1522/14/6 1523/14/6 1528/14/6
f 1528/14/6 1523/14/6 1529/14/6
f 1524/18/6 1525/18/6 1530/18/6
f 1530/18/6 1525/18/6 1531/18/6
f 1532/21/6 1533/21/6 1538/21/6
f 1538/21/6 1533/21/6 1539/21/6
f 1534/14/6 1535/14/6 1541/14/6
f 1541/14/6 1535/14/6 1542/14/6
f 1536/5/6 1537/5/6 1543/5/6
f 1543/5/6 1537/5/6 1544/5/6
f 1539/22/6 1540/22/6 1545/22/6
f 1545/22/6 1540/22/6 1546/22/6
f 1546/19/6 1547/19/6 1552/19/6
f 1552/19/6 1547/19/6 1553/19/6
f 1548/5/6 1549/5/6 1554/5/6
f 1554/5/6 1549/5/6 1555/5/6
f 1550/5/6 1551/5/6 1556/5/6
f 1556/5/6 1551/5/6 1557/5/6
f 1558/5/6 1559/5/6 1563/5/6
f 1563/5/6 1559/5/6 1564/5/6
f 1560/5/6 1561/5/6 1565/5/6
f 1565/5/6 1561/5/6 1566/5/6
f 1562/5/6 1563/5/6 1569/5/6
f 1569/5/6 1563/5/6 1570/5/6
f 1566/5/6 1567/5/6 1571/5/6
f 1571/5/6 1567/5/6 1572/5/6
f 1568/20/6 1569/20/6 1576/20/6
f 1576/20/6 1569/20/6 1577/20/6
f 1572/14/6 1573/14/6 1578/14/6
f 1578/14/6 1573/14/6 1579/14/6
f 1574/5/6 1575/5/6 1580/5/6
f 1580/5/6 1575/5/6 1581/5/6
f 1582/5/6 1583/5/6 1588/5/6
f 1588/5/6 1583/5/6 1589/5/6
f 1584/5/6 1585/5/6 1590/5/6
f 1590/5/6 1585/5/6 1591/5/6
f 1586/5/6 1587/5/6 1592/5/6
f 1592/5/6 1587/5/6 1593/5/6
f 1594/15/6 1595/15/6 1596/15/6
f 1596/15/6 1595/15/6 1597/15/6
f 1598/21/6 1599/21/6 1600/21/6
f 1600/21/6 1599/21/6 1601/21/6
f 1602/17/6 1603/17/6 1610/17/6
f 1604/17/6 1605/17/6 1611/17/6
f 1605/15/6 1606/15/6 1612/15/6
f 1611/17/6 1605/17/6 1612/17/6
f 1612/15/6 1606/15/6 1613/15/6
f 1606/17/6 1607/17/6 1614/17/6
f 1613/15/6 1606/15/6 1614/15/6
f 1614/17/6 1607/17/6 1615/17/6
f 1608/17/6 1609/17/6 1616/17/6
f 1602/17/6 1610/17/6 1617/17/6
f 1617/17/6 1610/17/6 1618/17/6
f 1616/17/6 1609/17/6 1619/17/6
f 1619/17/6 1609/17/6 1620/17/6
f 1621/16/6 1622/16/6 1627/16/6
f 1627/16/6 1622/16/6 1628/16/6
f 1623/18/6 1624/18/6 1629/18/6
f 1629/18/6 1624/18/6 1630/18/6
f 1625/6/6 1626/6/6 1631/6/6
f 1631/6/6 1626/6/6 1632/6/6
f 1633/20/6 1634/20/6 1635/20/6
f 1635/20/6 1634/20/6 1636/20/6
f 1637/17/6 1638/17/6 1641/17/6
f 1641/17/6 1638/17/6 1642/17/6
f 1639/17/6 1640/17/6 1645/17/6
f 1645/17/6 1640/17/6 1646/17/6
f 1641/15/6 1642/15/6 1647/15/6
f 1642/18/6 1643/18/6 1648/18/6
f 1647/15/6 1642/15/6 1648/15/6
f 1648/18/6 1643/18/6 1649/18/6
f 1643/17/6 1644/17/6 1650/17/6
f 1649/18/6 1643/18/6 1650/18/6
f 1644/15/6 1645/15/6 1651/15/6
f 1650/17/6 1644/17/6 1651/17/6
f 1645/15/6 1646/15/6 1651/15/6
f 1651/15/6 1646/15/6 1652/15/6
f 1652/15/6 1646/15/6 1653/15/6
f 1647/20/6 1648/20/6 1654/20/6
f 1654/20/6 1648/20/6 1655/20/6
f 1652/19/6 1653/19/6 1656/19/6
f 1656/19/6 1653/19/6 1657/19/6
f 1658/16/6 1659/16/6 1660/16/6
f 1660/16/6 1659/16/6 1661/16/6
f 1662/20/6 1663/20/6 1666/20/6
f 1666/20/6 1663/20/6 1667/20/6
f 1664/19/6 1665/19/6 1668/19/6
f 1668/19/6 1665/19/6 1669/19/6
f 1667/20/6 1668/20/6 1670/20/6
f 1670/20/6 1668/20/6 1671/20/6
f 1672/20/6 1673/20/6 1676/20/6
f 1673/19/6 1674/19/6 1677/19/6
f 1676/20/6 1673/20/6 1677/20/6
f 1677/19/6 1674/19/6 1678/19/6
f 1678/19/6 1674/19/6 1679/19/6
f 1679/19/6 1674/19/6 1680/19/6
f 1682/16/6 1683/16/6 1684/16/6
f 1684/16/6 1683/16/6 1685/16/6
f 1680/19/6 1681/19/6 1686/19/6
f 1679/19/6 1680/19/6 1686/19/6
f 1686/19/6 1681/19/6 1687/19/6
f 1675/20/6 1676/20/6 1688/20/6
f 1676/20/6 1677/20/6 1688/20/6
f 1688/20/6 1677/20/6 1689/20/6
f 1689/20/6 1677/20/6 1690/20/6
f 1686/20/6 1687/20/6 1692/20/6
f 1687/19/6 1681/19/6 1693/19/6
f 1692/20/6 1687/20/6 1693/20/6
f 1693/19/6 1681/19/6 1694/19/6
f 1691/20/6 1692/20/6 1695/20/6
f 1690/20/6 1691/20/6 1695/20/6
f 1692/20/6 1693/20/6 1695/20/6
f 1689/20/6 1690/20/6 1695/20/6
f 1695/20/6 1693/20/6 1696/20/6
f 1697/20/6 1698/20/6 1700/20/6
f 1698/19/6 1699/19/6 1701/19/6
f 1700/20/6 1698/20/6 1701/20/6
f 1701/19/6 1699/19/6 1702/19/6
